<svg version="1.2" xmlns="http://www.w3.org/2000/svg" viewBox="0 0 1024 1024" width="1024" height="1024">
	<style>
		.s0 { opacity: .25;fill: #b3b4b3 } 
		.s1 { opacity: .59;fill: #b4b2af } 
		.s2 { opacity: 1;fill: #b89c69 } 
		.s3 { opacity: 1;fill: #c2c6ca } 
		.s4 { opacity: 1;fill: #877d51 } 
		.s5 { opacity: 1;fill: #9d8f61 } 
		.s6 { opacity: 1;fill: #232414 } 
		.s7 { opacity: 1;fill: #3d391d } 
		.s8 { opacity: 1;fill: #313219 } 
		.s9 { opacity: 1;fill: #4d4122 } 
		.s10 { opacity: 1;fill: #75755f } 
		.s11 { opacity: 1;fill: #b1b39d } 
		.s12 { opacity: 1;fill: #5c6144 } 
		.s13 { opacity: 1;fill: #6f5f34 } 
		.s14 { opacity: 1;fill: #98998e } 
		.s15 { opacity: 1;fill: #cbcbcb } 
		.s16 { opacity: .28;fill: #989e9c } 
	</style>
	<g id="Background">
		<path id="Path 0" class="s0" d="m875.02 279.25c0.01 0.69-2.26 3.5-5.04 6.25-2.78 2.75-4.92 5.13-4.77 5.29 0.16 0.16 2.59-1.86 5.41-4.5 2.82-2.63 5.3-5.58 5.52-6.54 0.22-0.96 0.05-1.75-0.37-1.75-0.42 0-0.76 0.56-0.75 1.25zm-62.68 31.25c2.56 1.93 5 3.51 5.41 3.53 0.41 0.02-0.15-0.93-1.25-2.1-1.1-1.18-3.24-2.77-4.75-3.53-1.51-0.77-3.05-1.4-3.41-1.4-0.37 0 1.43 1.57 4 3.5z"/>
		<path id="Path 1" class="s1" d="m799.04 191.25c-0.02 0.41 1.67 3.34 3.76 6.5 2.1 3.16 5.01 8.45 6.48 11.75 1.47 3.3 2.68 7.01 2.69 8.25 0.02 1.24 0.48 2.03 1.03 1.75 0.64-0.32 0.45-2.23-0.5-5.25-0.82-2.61-2.96-7.59-4.75-11.06-1.79-3.48-4.47-7.75-5.96-9.5-1.49-1.76-2.73-2.85-2.75-2.44zm13.87 33.63c0.33 2.14 0.93 4.28 1.34 4.75 0.41 0.48 0.98 0.53 1.25 0.12 0.28-0.41 0.05-1.65-0.5-2.75-0.55-1.1-1-2.9-1-4 0-1.1-0.38-2-0.84-2-0.46 0-0.57 1.75-0.25 3.88zm-242.41 412.86c2.75 0.2 7.48 0.2 10.5 0 3.03-0.2 0.78-0.37-5-0.37-5.77 0-8.25 0.17-5.5 0.37zm284 23.78c-2.75 0.71-7.36 1.33-10.25 1.38-3.47 0.07-5.26 0.52-5.27 1.35-0.02 0.69 1.08 3.72 2.44 6.75 1.35 3.02 2.5 4.83 2.55 4 0.04-0.83-0.63-3.3-1.49-5.5-0.86-2.2-1.28-4.23-0.93-4.5 0.36-0.28 1.61-0.6 2.8-0.72 1.18-0.12 5.53-0.74 9.65-1.39 4.13-0.65 8.17-1.55 9-2 1.1-0.61 0.84-0.81-1-0.74-1.37 0.05-4.75 0.67-7.5 1.37z"/>
		<path id="Path 2" class="s2" d="m687.51 224.69c-1.1 0.25-1.88 0.87-1.75 1.38 0.13 0.51 0.91 0.93 1.74 0.93 0.83 0 2.06 0.9 2.75 2 0.69 1.11 1.59 2.01 2 2 0.41 0 0.75-1.57 0.75-3.5 0-2.71-0.39-3.47-1.75-3.38-0.96 0.06-2.65 0.32-3.74 0.57zm-4.38 17.31c0.1 4.68 0.89 11.43 1.77 15.01 0.88 3.58 2.69 8.31 4.01 10.5 1.33 2.19 4.48 6.78 7 10.19 2.53 3.42 4.93 6.23 5.34 6.25 0.41 0.03 0.98-0.85 1.25-1.95 0.38-1.52 1.65-2.16 5.25-2.66l4.75-0.66c-10.22-10.4-10.69-10.64-14.12-9.93-1.99 0.41-3.96 1.43-4.37 2.25-0.6 1.19-1.15 0.87-2.63-1.5-1.03-1.65-2.88-5.81-4.12-9.25-1.24-3.44-2.26-7.15-2.26-8.25 0-1.67 0.45-1.89 2.75-1.35 1.51 0.35 3.76 1.03 5 1.5 1.24 0.47 2.48 0.85 2.75 0.85 0.27 0 0.5-2.7 0.5-6 0-4.44-0.39-6.13-1.5-6.5-0.83-0.28-1.5-1.62-1.5-3 0-2.38-0.2-2.46-4.06-1.75-3.12 0.58-4.28 0.4-5.02-0.75-0.64-1.01-0.9 1.27-0.79 7zm93.37 38.67c-2.2 1.48-5.35 3.24-7 3.92-2.87 1.17-2.99 1.46-2.69 6.57 0.29 5.12 0.44 5.37 3.5 5.97 1.75 0.35 3.53 0.46 3.94 0.25 0.41-0.21 0.76-1.62 0.76-3.13 0.01-2.1 1.56-4.18 6.53-8.75 3.58-3.3 6.5-6.34 6.49-6.75-0.02-0.41-1.72-0.75-3.78-0.75-2.41-0.01-5.18 0.95-7.75 2.67zm-91.44 50.33c-2.03 3.02-5.79 8.54-8.37 12.25l-4.69 6.75c3.49 3.05 5.4 3.95 6.5 3.97 1.1 0.03 3.01-0.63 4.25-1.46 1.48-0.99 2.68-1.19 3.5-0.57 0.91 0.69 3.47-2.27 9.5-11 4.65-6.72 8.03-12.6 7.75-13.44-0.27-0.82-1.51-1.56-2.75-1.63-1.24-0.08-4.45-0.19-7.13-0.25-4.84-0.12-4.91-0.08-8.56 5.38zm176.33 11.9c0.35 0.64-0.23 1.1-1.39 1.1-1.72 0-1.9 0.42-1.25 3.02 0.46 1.85 0.36 3.02-0.25 3.01-0.55-0.01-2.01-0.69-3.25-1.52-1.67-1.12-2.26-1.19-2.27-0.26-0.01 0.69 1.38 2.6 3.09 4.25 1.71 1.65 3.97 4.69 5.02 6.75 1.05 2.06 1.91 4.76 1.9 6-0.01 1.24 0.62 4.5 1.39 7.25 0.78 2.75 2.16 8.38 3.09 12.5l1.68 7.5c8.8 1.23 10.89 2.13 12.14 3.72 1.7 2.16 1.79 2.17 1.76 0.28-0.02-1.1-0.71-4.48-1.53-7.5-0.81-3.02-2.45-10-3.63-15.5-1.18-5.5-2.23-10.68-2.32-11.5-0.1-0.82-1.43-4.2-2.96-7.5-1.52-3.3-3.98-7.04-5.44-8.31-1.47-1.26-3.51-2.77-4.53-3.35-1.34-0.74-1.69-0.73-1.25 0.06zm-58.89 42.37c-2.2 1.18-5.46 2.16-7.25 2.18-3.07 0.05-3.24 0.25-3.25 3.8 0 3.24 0.48 4.02 3.5 5.75 1.92 1.1 4.62 2 6 2 2.29 0 2.51 0.39 2.66 4.75l0.17 4.75c1.06-9.96 1.54-11.04 3.17-11.31 1.19-0.2 2.81 0.64 4 2.08 1.1 1.34 3.46 6.99 5.25 12.58l3.25 10.15c4.26-2.88 5.79-4.56 6.14-5.6 0.36-1.05 0.25-2.58-0.23-3.4-0.48-0.82-0.89-2.96-0.89-4.75-0.01-1.79 0.43-3.48 0.98-3.75 0.55-0.27 1-0.95 1-1.5 0-0.55-0.67-1.68-1.5-2.5-0.83-0.82-1.27-2.18-1-3 0.27-0.82 1.06-1.49 1.75-1.48 0.69 0.01-0.75-1.67-3.2-3.75-2.44-2.07-6.16-5.01-8.25-6.52-2.09-1.51-4.81-2.72-6.05-2.68-1.24 0.03-4.05 1.03-6.25 2.2zm-138.5 42.66c-4.13 0.92-7.47 2.1-7.44 2.62 0.03 0.52 0.39 2.3 0.81 3.95 0.41 1.65 1.17 3.79 1.69 4.75 0.52 0.96 0.97 2.76 1 4l0.07 2.25c1.53-3.67 3.25-4.86 5.62-5.47 2.06-0.53 4.65-1.14 5.75-1.35 1.1-0.21 2.67-0.69 3.5-1.08 0.83-0.38 2.15-0.56 2.94-0.4 0.8 0.17 1.6-0.6 1.8-1.7 0.2-1.1-0.36-2.68-1.25-3.5-1-0.93-1.4-2.36-1.05-3.75 0.5-2 0.2-2.24-2.69-2.12-1.79 0.07-6.63 0.88-10.75 1.8zm-116.42 8.57c-0.32 0.82-0.58 2.18-0.58 3 0 1.15 1.28 1.5 5.5 1.5 3.02 0 5.73-0.45 6-1 0.27-0.55 0.05-1.9-0.5-3-0.77-1.55-2-2-5.42-2-2.99 0-4.6 0.48-5 1.5zm340.98 3.25c-0.39 1.14 0.37 2.72 2.17 4.53l2.77 2.78c2.31-4.68 2.24-5.37 0.75-7.09-0.96-1.12-2.5-2.02-3.42-2-0.91 0.02-1.93 0.82-2.27 1.78zm-208.63 6c-1.76 3.71-4.03 8.66-5.06 11l-1.87 4.25c5.04 3.09 7.06 3.99 7.75 4 0.69 0 1.47-0.45 1.75-1 0.27-0.55 1.74-0.99 3.25-0.99 2.36 0.02 3.15-0.8 5.57-5.75 2.45-5.01 2.62-5.86 1.25-6.51-0.86-0.41-1.57-1.65-1.57-2.75 0-1.1 0.45-2.23 1-2.5 0.55-0.27 1-0.95 1-1.5 0-0.55-1.18-1.27-2.62-1.6-1.45-0.33-3.14-1.25-3.75-2.04-0.62-0.8-1.67-1.43-2.32-1.4-0.66 0.02-2.63 3.08-4.38 6.79zm-18.79 33l-0.14 4.25c-10.46 1.9-11.15 2.35-12.5 5.5-1.1 2.57-1.24 4.16-0.5 6 0.55 1.38 0.99 9.81 0.97 18.75-0.02 16.01 0.02 16.29 2.48 18.75 2.04 2.05 2.73 2.26 3.77 1.2 0.76-0.77 2.99-1.18 5.47-1l4.19 0.3c2.42-9.69 3.12-12.73 3.12-13 0-0.27-0.67-1.17-1.5-2-1.33-1.33-1.17-2.56 1.5-11 1.65-5.23 2.77-9.95 2.5-10.5-0.28-0.55-2.3-1-4.5-1-2.56 0-3.98 0.45-3.96 1.25 0.03 0.69-0.71 1.93-1.63 2.75-1.56 1.39-1.63 1.11-0.92-4 0.41-3.02 1.08-5.73 1.48-6 0.4-0.27 1.29-1.62 1.98-3 0.91-1.82 0.96-3.05 0.19-4.5-0.58-1.1-1.24-3.12-1.46-4.5-0.24-1.48-0.46-0.77-0.54 1.75zm-138.14 58.75c0 1.83 0.53 2.5 2 2.5 1.1 0 2.01-0.56 2.02-1.25 0.01-0.69-0.56-1.82-1.25-2.52-0.7-0.69-1.61-1.26-2.02-1.25-0.41 0.01-0.75 1.15-0.75 2.52zm-17.37 13.61c0.61 0.76 1.62 3.08 2.24 5.14 0.95 3.16 1.56 3.75 3.88 3.73 1.51-0.01 4.45-0.57 6.53-1.25 2.07-0.67 3.61-1.68 3.41-2.23-0.2-0.55-3.25-2-6.78-3.23-3.52-1.22-7.3-2.53-8.4-2.89-1.6-0.54-1.77-0.4-0.88 0.73zm437.62 7.56c0.16 1.05 1.22 1.94 2.51 2.08 1.64 0.18 2.17-0.22 1.98-1.5-0.14-0.96-1.27-1.9-2.51-2.08-1.71-0.25-2.18 0.11-1.98 1.5zm10.12 7.11c-0.63 0.4-1.46 1.86-1.85 3.23-0.4 1.37-0.16 4.97 0.52 7.99 0.68 3.02 1.61 7.08 2.05 9 0.45 1.92 1.85 4.69 3.11 6.14 1.27 1.45 3.76 3.36 5.55 4.25 1.79 0.88 4.15 1.61 5.25 1.61 1.1 0 2.21 0.79 2.46 1.75 0.25 0.96 0.28-0.5 0.07-3.25-0.22-2.75-1.12-7.92-2.01-11.5-0.89-3.58-2.11-9.2-2.71-12.5-0.61-3.3-1.26-6.21-1.45-6.47-0.19-0.26-0.79 0.19-1.34 1-0.85 1.28-1.37 1.24-4-0.28-1.66-0.96-3.36-1.74-3.77-1.73-0.41 0-1.26 0.35-1.88 0.76zm-225.3 67.25c-1.6 0.59-2.37 1.6-2.25 2.94 0.1 1.12 0.63 3.16 1.18 4.53 0.6 1.5 1.8 2.5 3 2.5 1.67 0 2.02 0.7 2.11 4.25l0.12 4.25c1.05-5.42 1.68-7.56 2.07-8.25 0.38-0.69 1.04-1.06 1.45-0.82 0.41 0.23 1.05-1.45 1.42-3.75 0.52-3.28 0.3-4.44-1-5.4-0.92-0.67-2.57-1.2-3.67-1.18-1.1 0.01-3.09 0.43-4.43 0.93z"/>
		<path id="Path 3" class="s3" d="m853.41 360.25c-0.3 0.69-0.4 2.15-0.22 3.25 0.2 1.21 1.22 2.1 2.57 2.25 1.23 0.14 2.24-0.2 2.24-0.75 0-0.55-0.45-2.13-1-3.5-0.55-1.38-1.46-2.5-2.02-2.5-0.57 0-1.27 0.56-1.57 1.25zm-304.41 66.75v5c11.83 0 15-0.42 15-1 0-0.55-0.34-0.99-0.75-0.97-0.41 0.01-3.56-1.79-7-4-3.44-2.22-6.47-4.03-6.75-4.03-0.27 0-0.5 2.25-0.5 5z"/>
		<path id="Path 4" class="s4" d="m816.99 243.25c-0.01 0.69 1.68 1.92 3.75 2.75 2.07 0.82 4.1 1.6 4.51 1.75 0.41 0.14 0.75-0.43 0.75-1.25 0-0.82-1.58-2.18-3.5-3-1.92-0.82-3.95-1.5-4.5-1.5-0.55 0-1.01 0.56-1.01 1.25zm-95.44 38.07c-0.29 1.2-0.53 2.52-0.54 2.93 0 0.41 0.78 0.75 1.74 0.75 0.96 0.01 2.28-0.78 2.92-1.75 0.98-1.46 0.78-1.94-1.21-2.93-2.11-1.05-2.44-0.94-2.91 1zm2.56 14.85c-1.12 1.83-3.64 4.57-5.58 6.08-2.64 2.06-3.53 3.5-3.53 5.75v3c7.36-7.4 10.94-10.21 12.69-11.03 2.94-1.35 3.1-1.67 2-3.89-0.65-1.33-1.72-2.61-2.36-2.83-0.65-0.22-2.09 1.09-3.22 2.92zm88.4 85.58c-0.46 1.22 0.17 2.35 2.1 3.75 1.52 1.1 4.49 3.57 6.6 5.5 2.11 1.93 4.06 3.16 4.32 2.75 0.26-0.41-0.03-2.21-0.63-4-0.73-2.14-2.78-4.36-6-6.5-2.7-1.79-5.09-3.25-5.32-3.25-0.22 0-0.71 0.79-1.07 1.75zm-26.25 6.98c0.41 2.62 0.73 6.12 0.7 7.77-0.04 2.7 0.11 2.85 1.54 1.5 0.87-0.82 1.57-2.06 1.54-2.75-0.02-0.69 0.41-1.02 0.96-0.75 0.6 0.3 0.95-1.22 0.87-3.78-0.11-3.81-0.46-4.42-3.25-5.53l-3.12-1.24zm-260.86 24.3c-1.49 1.58-1.64 2.29-0.69 3.25 0.9 0.91 1.54 0.94 2.5 0.1 0.71-0.62 1.63-2.08 2.04-3.25 0.53-1.49 0.35-2.12-0.6-2.12-0.74 0-2.21 0.91-3.25 2.02zm164.6 3.98c0 0.55-1.35 1.78-3.01 2.75-1.66 0.96-3.01 2.08-3 2.5 0.01 0.41 1.14 0.75 2.51 0.75 1.78 0 2.94-0.87 4-3 0.83-1.65 1.5-3.23 1.5-3.5 0-0.28-0.45-0.5-1-0.5-0.55 0-1 0.45-1 1zm145.97 8.75c-0.02 3.48 0.51 5.28 2.01 6.75 1.12 1.1 2.25 1.77 2.51 1.5 0.26-0.28-0.38-3.32-1.43-6.75-1.05-3.44-2.17-6.25-2.48-6.25-0.32 0-0.59 2.13-0.61 4.75zm37.51 5c0.41 2.61 1.14 5.76 1.63 7 0.63 1.58 1.36 2.02 2.46 1.5 1.14-0.55 1.39-1.56 0.93-3.75-0.35-1.65-1.06-4.47-1.57-6.25-0.56-1.96-1.58-3.25-2.56-3.25-1.39 0-1.52 0.72-0.89 4.75zm-67.78 31c-0.35 0.41 0.32 2.55 1.49 4.75 1.16 2.2 2.44 5.12 2.84 6.5 0.55 1.91 0.89 2.14 1.43 1 0.38-0.83-0.01-4.09-0.88-7.25-0.91-3.34-2.14-5.75-2.91-5.75-0.73 0-1.62 0.33-1.97 0.75zm-123.02 1.69c-0.36 0.25-0.44 2.27-0.17 4.5 0.27 2.23 0.83 4.07 1.24 4.08 0.42 0.01 1.54-1.57 2.5-3.5 0.97-1.94 1.75-3.97 1.75-4.52 0-0.55-1.05-1-2.33-1-1.28 0-2.63 0.2-2.99 0.44zm-157.43 23.19c-1.46 0.24-2.25 1.07-2.25 2.37 0 1.66 0.34 1.83 2 1 1.1-0.55 2.9-1 4-1 1.11 0 2-0.67 2-1.5 0-0.83-0.78-1.44-1.75-1.37-0.96 0.08-2.76 0.3-4 0.5zm406.58 18.99c0.27 1.58 0.76 3.96 1.08 5.28 0.33 1.32 1.16 2.56 1.84 2.75 0.69 0.19 1.52-0.67 1.84-1.9 0.32-1.24 0.27-3.49-0.1-5-0.38-1.52-1.09-2.75-1.59-2.75-0.49 0-1.5-0.29-2.23-0.63-1-0.47-1.21 0.09-0.84 2.25zm-470.83 9.58c-0.77 0.66-1.32 1.44-1.23 1.75 0.1 0.3 2.55 2.18 5.45 4.18 2.91 2 7.17 4.7 9.49 6 3.45 1.94 4.43 2.13 5.5 1.06 1.06-1.07 0.84-1.66-1.21-3.27-1.37-1.08-5.42-3.96-9-6.41-3.57-2.44-6.74-4.46-7.05-4.48-0.3-0.02-1.18 0.51-1.95 1.17zm62.75 53.37c-1.55 1.93-2.2 3.42-1.5 3.42 0.69-0.01 1.82 2.02 2.5 4.5 0.69 2.48 1.59 4.52 2 4.53 0.42 0.01 1.1-1.45 1.51-3.25 0.42-1.8 0.76-5.41 0.75-8.02q-0.01-4.75-1.26-4.68c-0.68 0.04-2.48 1.61-4 3.5zm297.65 3.48c0.42 1.9 1.06 5.1 1.43 7.13 0.63 3.43 0.95 3.72 4.67 4.09 2.2 0.22 4.15 0.36 4.32 0.31 0.18-0.04 0.06-2.67-0.25-5.83-0.56-5.65-0.62-5.74-3.32-5.19-2.01 0.42-3.4-0.04-5.18-1.69l-2.43-2.26zm-282.06 50.19c0.35 1.24 0.64 2.82 0.65 3.5 0.01 0.88 2.51 1.35 8.26 1.58 4.54 0.18 9.04 0.63 10 1 1.19 0.46 1.75 0.19 1.75-0.83 0-0.82-0.67-1.72-1.5-2-0.87-0.29-1.29-1.23-1-2.25 0.42-1.45-0.39-1.87-4.75-2.49-2.88-0.4-7.23-0.74-9.65-0.75-4.09 0-4.36 0.15-3.76 2.24zm112.65 6c0 0.69 0.68 2.27 1.5 3.5 1.06 1.57 2.34 2.18 4.26 2 2.02-0.18 2.82-0.84 3-2.5 0.21-1.88-0.23-2.25-2.75-2.25-1.65 0-3.22-0.45-3.5-1-0.27-0.55-0.95-1-1.5-1-0.55 0-1 0.57-1.01 1.25zm25.01 16.25c0 4.84-0.24 5.5-2 5.5-1.1 0-2.28 0.79-2.62 1.75-0.34 0.97 0.22 3.47 1.25 5.58 1.46 2.98 1.62 4.19 0.73 5.5-0.63 0.92-1.46 4.37-1.84 7.67l-0.71 6c6.35 1.94 8.75 2.51 9.44 2.51 0.98 0 1.08-2.9 0.49-13.25-0.43-7.29-0.99-16.29-1.26-20.01-0.37-5.1-0.86-6.75-1.98-6.75-1.15 0-1.5 1.29-1.5 5.5zm199-3.83c-3.57 0.78-12.45 2.79-19.72 4.45-9.32 2.14-13.24 3.46-13.25 4.46-0.02 0.78 0.65 1.65 1.47 1.92 0.83 0.28 2.63 0.5 4 0.5 1.38 0 4.86-0.87 7.75-1.93 2.89-1.07 8.18-2.5 11.75-3.19 3.58-0.68 7.63-1.83 9-2.55 1.38-0.72 3.18-1.33 4-1.35 0.83-0.02 2.27-0.59 3.21-1.26 0.94-0.67 1.73-1.55 1.75-1.97 0.02-0.41-0.75-0.69-1.71-0.63-0.96 0.07-4.67 0.76-8.25 1.55zm11.5 7.84c-2.2 0.77-5.24 2.78-6.75 4.45-1.51 1.68-4.21 3.45-6 3.95-3.21 0.9-3.19 0.92 1.3 1 2.5 0.05 4.98-0.29 5.5-0.76 0.52-0.48 3.65-1.38 6.95-2.01 3.3-0.63 7.24-1.15 8.75-1.14 1.51 0 3.76-0.62 5-1.38 1.24-0.77 3.94-1.67 6-2 3.23-0.53 3.58-0.83 2.5-2.16-0.97-1.2-3.26-1.52-10.25-1.46-4.97 0.05-10.79 0.73-13 1.51zm-208.5 39.49c0 2.34 0.45 3 2 3 1.56 0 2-0.66 2-3 0-2.33-0.44-3-2-3-1.55 0-2 0.67-2 3z"/>
		<path id="Path 5" class="s5" d="m811 243.5c-2.46 1.41-2.44 1.43 1.75 1.46 3.13 0.03 4.25-0.36 4.25-1.46 0-0.82-0.79-1.48-1.75-1.46-0.96 0.01-2.88 0.67-4.25 1.46zm33.66 18.46c0.26 1.56 1.1 2.04 3.59 2.05 1.79 0.01 5.6 0.8 8.46 1.75 2.87 0.96 5.49 1.51 5.83 1.24 0.34-0.27 0.21-1.85-0.29-3.5-0.91-2.99-0.93-3-9.42-3.29-8.08-0.27-8.49-0.18-8.17 1.75zm16.64 29.37c-3.49 2.63-4.47 2.96-5.75 1.92-0.85-0.69-2.15-1.04-2.88-0.78-0.73 0.26-1.4 1.61-1.5 3-0.13 1.91-1.09 2.91-3.92 4.07-3.41 1.4-3.48 1.5-0.75 1.07 1.65-0.25 4.13-0.97 5.5-1.59 1.38-0.62 3.63-1.76 5-2.53 1.38-0.77 4.3-2.99 6.5-4.93 2.2-1.94 3.55-3.49 3-3.46-0.55 0.03-2.89 1.49-5.2 3.23zm-40.15 37.04c-0.08 0.35 1.09 1.74 2.6 3.1 1.51 1.36 3.31 2.48 4 2.5 0.69 0.02 1.24-0.53 1.23-1.22 0-0.69-0.34-1.79-0.75-2.46-0.4-0.66-2.12-1.51-3.83-1.87-1.7-0.37-3.16-0.39-3.25-0.05zm-19.75 45.88c-0.42 0.76 0.55 2.24 2.46 3.75 1.74 1.37 3.15 3.06 3.15 3.75-0.01 0.76 1.07 1.15 2.73 1 1.51-0.14 2.89-0.93 3.07-1.75 0.2-0.89-1.63-2.81-4.49-4.73-2.65-1.77-5.14-3.23-5.52-3.25-0.39-0.01-1.02 0.54-1.4 1.23zm-218.4 20.83c-2.48 1.13-5.52 3.03-6.78 4.23-1.25 1.21-2.26 2.42-2.25 2.69 0.01 0.27 1.15 0.61 2.53 0.75 1.37 0.14 3.4 0.7 4.5 1.25 1.65 0.83 2.48 0.45 4.75-2.19 1.54-1.79 2.77-4.43 2.79-6 0.03-1.55-0.2-2.8-0.5-2.79-0.3 0.01-2.56 0.94-5.04 2.06zm299.4 5.51c0.44 2.22-0.02 3.57-1.91 5.66-1.37 1.51-2.49 3.43-2.49 4.25 0 0.82-0.45 1.73-1 2-0.55 0.27-1.7-0.06-2.54-0.75-1.33-1.08-1.54-0.83-1.49 1.75 0.04 1.65-0.43 3.45-1.04 4-0.65 0.59-0.86 2.54-0.52 4.75l0.59 3.75c15.82-1.5 15.86-1.49 16.43 1 0.32 1.37 1.71 3.06 3.08 3.75 1.37 0.69 2.83 1.26 3.24 1.27 0.41 0.01-0.43-1.22-1.88-2.75-1.44-1.52-2.95-4.57-3.34-6.77-0.39-2.2-1.54-6.48-2.55-9.5-1.01-3.02-2.09-7.41-2.41-9.75-0.31-2.34-1.06-4.54-1.66-4.91q-1.1-0.67-0.51 2.25zm-362.9 16.65c-1.65 1.19-4.77 2.54-6.93 3-2.28 0.48-4.81 1.9-6 3.37-1.14 1.4-2.63 2.28-3.32 1.97-0.69-0.32-1.92 0.54-2.75 1.92l-1.5 2.5 19.27-0.5c7.8-10.8 8.07-11.56 6.73-12.99-0.83-0.88-1.73-1.56-2-1.52-0.27 0.04-1.85 1.05-3.5 2.25zm11.5 15.52c0.83 0.32 2.22 1.3 3.09 2.17 0.87 0.86 1.89 2.36 2.25 3.32 0.41 1.08 1.72 1.76 3.41 1.76 1.51 0.01 3.65 0.27 4.75 0.57 1.64 0.45 2.18-0.12 3-3.22 0.73-2.75 1.68-3.97 3.5-4.47 1.38-0.38-2.9-0.7-9.5-0.71-6.6-0.01-11.33 0.25-10.5 0.58zm160.37 13.49c-0.32 0.69-0.31 2.04 0.02 3 0.34 0.96 1.28 1.75 2.11 1.75 0.83 0 1.73-0.79 2-1.75 0.28-0.96-0.06-2.33-0.75-3.04-0.69-0.72-1.6-1.28-2.02-1.25-0.43 0.02-1.04 0.6-1.36 1.29zm-191.54 2.5c-1.39 1.51-4.62 5.79-7.18 9.5l-4.65 6.75c-7.75 0-10.79-0.43-11.75-0.97-1.42-0.78-2.33-0.17-4.86 3.25-2.89 3.91-3.07 4.63-2.46 9.72 0.59 4.89 0.37 5.94-1.99 9.5-1.46 2.2-3.86 5.12-5.32 6.5-1.47 1.37-2.66 3.29-2.65 4.25 0.02 0.96 0.47 1.86 1.01 2 0.61 0.15 0.71 2.31 0.25 5.63-0.58 4.29-1.19 5.56-2.98 6.25-1.24 0.48-2.25 1.32-2.25 1.87 0 0.55 0.68 1.67 1.5 2.5 0.82 0.83 1.84 1.52 2.25 1.54 0.41 0.03 1.31-0.65 2-1.5 1-1.23 1-1.85 0-3.07-1.03-1.25-0.88-1.92 0.84-3.75 1.15-1.22 6.55-8.64 12-16.5 5.45-7.85 14.75-21.23 20.66-29.75 5.91-8.51 10.41-15.71 10-16-0.41-0.29-1.01-0.51-1.32-0.5-0.31 0.02-1.7 1.27-3.1 2.78zm332.41 20.25c0.69 1.11 1.6 2.01 2.01 2 0.41 0 1.54-0.27 2.5-0.6 1.61-0.55 1.59-0.7-0.25-1.97-1.1-0.75-2.79-1.38-3.76-1.4-1.53-0.03-1.59 0.25-0.5 1.97zm111.2 13c0.25 1.93 1.18 6.87 2.07 11 1.08 5.03 1.26 7.58 0.55 7.75-0.58 0.14-1.04 1.49-1.02 3 0.03 1.51-0.65 3.31-1.5 4-0.84 0.69-2.21 1.02-3.04 0.75-1.03-0.34-1.51 0.2-1.52 1.75-0.01 1.24 0.56 2.82 1.25 3.52 0.7 0.69 3.41 1.26 6.02 1.25 3.69-0.02 4.85 0.37 5.21 1.73 0.25 0.96 0.21-0.95-0.1-4.25-0.3-3.3-0.97-6.45-1.47-7-0.5-0.55-1.25-3.86-1.65-7.36-0.41-3.5-1.08-6.53-1.49-6.75-0.41-0.21-0.78-1.63-0.83-3.14-0.04-1.51-0.72-4.32-1.51-6.25l-1.43-3.5zm-139.45 0.25c-0.01 0.69 1.23 7.63 2.75 15.42 1.52 7.8 3.1 13.99 3.51 13.75 0.41-0.23 1.88 0.59 3.26 1.83 1.39 1.24 3.64 4.84 5 8 1.37 3.16 3.02 6.09 3.66 6.5 0.87 0.56 0.97-0.16 0.37-2.75-0.45-1.92-1.55-8.67-2.44-15l-1.64-11.5-9.46-0.5c-1.62-10.46-2.29-14.29-2.54-15.25-0.26-0.96-0.91-1.75-1.46-1.75-0.55 0-1 0.56-1.01 1.25zm-282.37 27.5c-0.33 2.06-0.6 5.66-0.61 8-0.01 2.34 0.33 4.26 0.74 4.28 0.41 0.01 1.31-1.11 2-2.5 0.89-1.81 1.82-2.39 3.25-2.03 1.6 0.4 2 0 2-2 0-1.62-0.73-2.76-2.08-3.25-1.54-0.56-1.92-1.32-1.5-3q0.58-2.25-0.92-2.75c-0.83-0.27-1.67-0.5-1.89-0.5-0.21 0-0.65 1.69-0.99 3.75zm-41.55 18.52c-0.82 0.92-0.4 1.72 1.67 3.16 1.52 1.06 4.9 4.1 7.51 6.75 3.35 3.4 5.56 4.83 7.5 4.85 1.51 0.01 4.21 1.14 6 2.5 2.89 2.2 3.42 2.3 4.75 0.97 1.33-1.33 0.19-2.37-10.25-9.33-6.46-4.31-12.73-8.35-13.92-8.98-1.66-0.88-2.43-0.86-3.26 0.08zm460.25 16.48c0.28 0.96 0.99 4.11 1.59 7 0.88 4.22 1.48 5.25 3.09 5.25 1.75 0 1.93-0.47 1.41-3.75-0.33-2.06-1.23-5.21-2-7-0.78-1.79-2.13-3.25-3-3.25-1.05 0-1.42 0.6-1.09 1.75zm3.82 16.93c-0.01 0.45 0.6 3.52 1.34 6.82 0.74 3.3 1.39 5.44 1.44 4.75 0.04-0.69 0.98-1.25 2.08-1.25 1.1 0 1.99-0.34 1.98-0.75 0-0.41-0.61-2.77-1.35-5.25-0.96-3.22-1.93-4.59-3.41-4.82-1.13-0.18-2.07 0.05-2.08 0.5zm-299.14 30.32c0 9.11 0.26 11 1.5 11 0.83 0 1.5 0.89 1.5 2 0 1.1 0.34 2.01 0.75 2.02 0.41 0.01 1.93-1.22 3.37-2.75 2.25-2.37 2.72-3.96 3.25-11.02 0.59-7.71 0.48-8.38-1.62-10.22-1.24-1.08-3.71-1.98-5.5-2l-3.25-0.03zm179.28-6.75c0.31 1.24 1.16 5.79 1.89 10.12 0.73 4.32 1.67 8.03 2.08 8.25 0.41 0.21 1.44-0.18 2.29-0.87 0.85-0.69 1.53-2.26 1.5-3.5-0.02-1.24 0.46-2.36 1.07-2.5 0.76-0.17 0.91-2.17 0.47-6.25-0.54-5-1.02-6.12-2.86-6.74-1.22-0.4-3.3-0.74-4.61-0.75-1.98-0.01-2.3 0.38-1.83 2.24zm-314.13 32c-0.08 3.71 0.27 7.76 0.79 9 0.52 1.24 2.21 3.69 3.75 5.45 1.55 1.77 3.82 3.23 5.06 3.25 1.44 0.03 2.43-0.67 2.75-1.95 0.46-1.86 1.01-1.95 7.87-1.25 5.92 0.6 7.7 0.45 9.04-0.75 0.92-0.83 1.66-1.95 1.64-2.5-0.02-0.55-3.98-1.34-8.79-1.75-4.82-0.41-9.77-0.97-11.01-1.25-1.99-0.44-2.22-1.04-2-5.25l0.25-4.75c-8.21 0.48-8.52 0.31-8.85-2.25-0.19-1.51-0.42 0.29-0.5 4zm238.27 12.88c-0.96 4.29-1.05 4.38-5.45 4.7-2.46 0.17-4.8 0.85-5.21 1.5-0.4 0.64-0.74 2.18-0.75 3.42-0.01 1.92 0.61 2.31 4.24 2.64 2.34 0.22 6.05 0.66 8.25 0.99 2.2 0.32 4.61 1.16 5.37 1.85 0.75 0.7 2.16 2.85 3.13 4.77 0.98 1.92 3.64 7.1 5.91 11.5 2.28 4.4 4.59 8.45 5.13 9 0.55 0.55 0.99 0.66 0.98 0.25-0.01-0.41-0.92-2.55-2.02-4.75-1.1-2.2-2-4.45-2-5 0-0.55 1.14-1.79 2.55-2.75 2.04-1.41 2.78-1.5 3.75-0.48 0.66 0.69 1.54 1.26 1.95 1.25 0.41-0.01 0.75-0.92 0.75-2.02 0-1.1 0.67-2.67 1.5-3.5 1.33-1.33 0.75-2.89-5.25-14.02-6.35-11.77-6.93-12.52-9.75-12.49-1.65 0.01-5.05-0.26-7.55-0.61l-4.56-0.63zm206.5-0.66c-0.23 0.26-5.14 1.16-10.92 2.01-5.77 0.85-11.4 1.74-12.5 1.99-1.1 0.25-2.59 1.71-3.31 3.25-0.72 1.54-1.06 4.23-0.75 6.04 0.33 1.87 0.14 3.25-0.44 3.25-0.55 0-1 0.45-1 1 0 0.6 1.5 0.75 3.75 0.37 2.07-0.35 7.13-1.46 11.25-2.49 4.13-1.02 8.85-1.87 10.5-1.88 1.65-0.02 5.37-0.81 8.26-1.77 2.9-0.95 5.41-2.18 5.6-2.73 0.18-0.55-0.5-2.92-1.51-5.25-1.64-3.79-2.22-4.25-5.18-4.25-1.83 0-3.52 0.2-3.75 0.46zm-238.79 34.7c-0.06 1.29-0.33 3.8-0.62 5.59-0.43 2.73-0.15 3.35 1.74 3.88 2.13 0.6 2.21 0.96 1.5 6.5-0.74 5.79-0.72 5.87 1.75 5.87 1.38 0 2.73-0.68 3-1.5 0.28-0.83 0.17-2-0.25-2.62-0.41-0.61-0.07-1.5 0.75-1.98 0.83-0.48 2.52-0.88 3.75-0.89 2.04-0.01 2.26 0.49 2.38 5.24l0.12 5.25c1.17-6.98 1.52-12.38 1.52-16.5 0.01-6.87-0.08-7.23-1.13-4.21-0.62 1.8-1.59 3.1-2.14 2.87-0.55-0.23-2.9-1.04-5.23-1.79-3.58-1.16-4.27-1.83-4.5-4.3-0.15-1.61-0.78-3.11-1.4-3.33-0.62-0.23-1.18 0.64-1.24 1.92zm-43.13 15.34c0 1.9 0.84 2.85 3.5 4 1.93 0.82 4.18 1.5 5 1.5 1.02 0 1.42-0.85 1.25-2.6-0.19-2.05-1.1-2.9-4.25-3.99-2.2-0.76-4.33-1.39-4.75-1.4-0.41-0.01-0.75 1.11-0.75 2.49zm1.62 17.25c-2.32 2.31-2.68 3.37-2.28 6.75 0.25 2.2 0.67 4.9 0.91 6 0.28 1.24 1.26 2 2.6 2 1.18 0 3.73-0.12 5.65-0.25 2.97-0.22 3.46-0.59 3.25-2.49-0.15-1.33-1.06-2.4-2.25-2.62-1.1-0.21-2.33-0.89-2.73-1.51-0.41-0.62-0.74-3.27-0.75-5.88-0.01-2.62-0.38-4.75-0.83-4.75-0.45 0-2.06 1.23-3.57 2.75z"/>
		<path id="Path 6" class="s6" d="m742.51 169.64c-1.75 0.44-1.96 1.24-1.75 6.43l0.24 5.93c11.24 0.11 16.52 0.45 19 0.82 3.69 0.56 4.55 1.09 4.75 2.93 0.14 1.24 1.36 2.81 2.72 3.5 2.25 1.14 2.68 0.98 4.75-1.69 1.25-1.62 2.83-3.64 3.5-4.5 0.67-0.86 1.24-2.91 1.28-4.56 0.05-2.52-0.54-3.28-3.72-4.74-2.08-0.95-5.8-2.16-8.28-2.67-2.48-0.52-8.1-1.18-12.5-1.46-4.4-0.28-8.9-0.28-9.99 0.01zm16.57 119.05c-0.03 1.55 0.17 3.71 0.45 4.81 0.27 1.1 1.73 2.58 3.23 3.29 1.51 0.71 3.09 0.93 3.52 0.5 0.42-0.44 0.65-3.04 0.5-5.79-0.28-4.98-0.29-5-3.97-5.31-3.43-0.29-3.69-0.12-3.73 2.5zm-66.84 31.81c-1.23 1.93-2.24 3.95-2.24 4.5 0 0.58 2.51 0.9 6.04 0.75 4.49-0.19 6.27 0.13 6.96 1.25 0.79 1.29 1.14 1.22 2.43-0.5 0.83-1.1 1.53-2.45 1.56-3 0.03-0.55-1.19-2.23-2.72-3.73-1.94-1.92-3.82-2.74-6.28-2.75-2.93-0.02-3.88 0.56-5.75 3.48zm93.88 47.92l-0.12 6.58c5.81-1.02 8.5-2.04 9.72-2.91 1.22-0.87 2.31-1.89 2.43-2.25 0.12-0.37-2.23-2.17-5.22-4-2.99-1.84-5.71-3.49-6.06-3.67-0.35-0.19-0.69 2.63-0.75 6.25zm81.5 27.28c-1.86 2.76-1.86 2.93 0.51 12.3 1.32 5.23 2.84 9.4 3.38 9.28 0.55-0.13 1.1-1.59 1.24-3.25 0.2-2.45 0.54-2.84 1.75-2.03 0.83 0.55 1.95 0.77 2.5 0.5 0.55-0.27 1-1.17 1-2 0-0.82 1.13-2.62 2.5-4 2.1-2.1 2.4-3.11 1.87-6.25-0.34-2.06-1.13-4.31-1.75-5-0.61-0.69-3.37-1.5-6.12-1.8-4.64-0.51-5.14-0.35-6.88 2.25zm-77.43-0.54c-0.06 0.74-0.82 2.02-1.69 2.84-1.32 1.24-1.58 4.03-1.54 16.25l0.04 14.75c11.88-0.06 12.69-0.33 14.47-2.78 1.66-2.29 2.02-4.65 2.25-14.97 0.28-12.13 0.26-12.25-1.97-12.22-1.24 0.02-4.32-1.15-6.86-2.59-3.27-1.85-4.63-2.22-4.7-1.28zm35.79 21.34c-0.54 1.38-1.88 2.95-2.98 3.5-1.58 0.79-1.89 1.68-1.47 4.25 0.29 1.79 1.07 4.53 1.75 6.08 1.17 2.72 1.42 2.81 6.22 2.17 2.75-0.36 5.34-0.85 5.75-1.08 0.41-0.23 0.73-2.78 0.72-5.67-0.03-4.68-0.42-5.6-3.5-8.5-1.91-1.79-3.93-3.25-4.49-3.25-0.56 0-1.46 1.13-2 2.5zm50.35 10.75c0.36 1.24 0.65 2.59 0.66 3 0 0.41 2.49 0.75 5.51 0.75 3.02 0 5.73-0.45 6-1 0.27-0.55 0.27-1.9 0-3-0.43-1.73-1.33-2-6.65-2-5.91 0-6.13 0.09-5.52 2.25zm35.43 20.6l-4.75 1.65-0.05 12c5.84-1.18 8.21-2.18 9.04-2.98 1.12-1.08 2.64-1.27 5.96-0.74 3.91 0.63 4.53 1.08 5.08 3.72 0.34 1.65 1.38 4.46 2.29 6.25 0.92 1.79 1.65 4.49 1.63 6-0.03 1.51 0.53 3.28 1.25 3.93 0.83 0.76 2.75 0.94 5.44 0.5l4.15-0.68c-0.83-9.3-1.46-12.79-1.93-13.75-0.48-0.96-0.85-2.76-0.83-4 0.03-1.24-0.7-2.92-1.63-3.75-0.92-0.82-2.06-2.51-2.54-3.75-0.48-1.24-2.33-3.15-4.12-4.25-2.29-1.4-4.87-1.96-8.75-1.9-3.02 0.06-7.64 0.84-10.24 1.75zm-266.76 16.65c0 8.33 0.34 11.6 1.25 11.87 0.73 0.22 1.25 2.05 1.25 4.42 0 2.22 0.23 4.26 0.5 4.52 0.27 0.27 3.32-0.26 6.77-1.16l6.28-1.65-0.05-29.5h-16zm-168.04-4.87c-1.19 1.45-2.12 3.03-2.06 3.5 0.05 0.48 0.78 1.1 1.6 1.37 0.82 0.27 3.64 0.52 6.25 0.54 3.21 0.03 5.24-0.49 6.25-1.61 1.35-1.5 1.2-1.9-1.5-4.04-1.65-1.31-4.21-2.38-5.68-2.39-1.69 0-3.49 0.98-4.86 2.63zm46.55 42.06c-1.27 0.29-1.91 1.16-1.75 2.38 0.13 1.06 1.14 2.16 2.24 2.43 1.49 0.37 1.86 1.07 1.46 2.75-0.43 1.79 0.1 2.56 2.6 3.75 2.79 1.33 3.24 1.33 4.02 0 0.49-0.83 0.9-3.64 0.9-6.25 0.02-3.34-0.42-4.9-1.48-5.25-0.83-0.27-2.51-0.45-3.75-0.38-1.24 0.06-3.15 0.32-4.24 0.57zm-33.94 40.46c-0.36 0.74-0.53 3.15-0.37 5.35 0.28 3.79 0.72 4.28 8.3 9.32 4.4 2.92 9.93 6.3 12.28 7.5l4.28 2.18c-1.29 14.45-1.21 17.52-0.56 17.54 0.55 0.01 2.35-0.66 4-1.5 1.74-0.88 3.11-1.1 3.25-0.53 0.14 0.55-1.07 2.34-2.67 3.99-1.61 1.65-3.41 3-4 3-0.6 0-1.3 1.01-1.57 2.25-0.26 1.24-0.5 3.6-0.52 5.25-0.03 1.84 0.84 3.86 2.23 5.23 1.26 1.22 3.07 2.24 4.03 2.25 0.96 0.01 1.98 0.69 2.25 1.52 0.28 0.85 1.7 1.5 3.25 1.51h2.75c1.38-22.99 1.26-25.25 0-26.51-0.83-0.83-1.73-3.08-2-5-0.32-2.22-1.05-3.5-2-3.5-1.09 0-0.75-0.94 1.25-3.43 1.51-1.88 3.31-3.46 4-3.5 0.69-0.04 1.26-0.63 1.28-1.32 0.02-0.69-0.93-2.15-2.11-3.25-1.31-1.22-3.37-1.94-5.28-1.86-1.73 0.08-5.16 0.48-7.64 0.89l-4.5 0.75c-2.12-6.03-3.11-8.23-3.56-8.78-0.45-0.55-0.62-1.56-0.38-2.25 0.24-0.69-1.02-2.32-2.81-3.63-1.79-1.31-4.6-2.6-6.25-2.86-1.65-0.26-3.74-0.81-4.64-1.22-1.01-0.46-1.89-0.23-2.29 0.61zm147.43 91.35v5.5c6.2 0 8.2-0.34 8.45-0.75 0.25-0.41 0.81-2.89 1.25-5.52l0.8-4.76-10.5 0.03zm22.98-0.2c-2.7 0.8-3.73 1.77-4.38 4.12-0.48 1.7-0.58 3.87-0.23 4.83 0.51 1.42 1.47 1.66 5.13 1.25l4.5-0.5v16c8.37 0 8.91-0.25 8.35-1.75-0.36-0.96-0.7-2.87-0.75-4.25-0.08-1.89 0.45-2.56 2.15-2.75 2.08-0.23 2.25-0.75 2.25-6.75v-6.5c-7.47 0-8.07-0.33-8.5-2.5-0.37-1.83-1.1-2.47-2.75-2.37-1.24 0.07-3.84 0.59-5.77 1.17zm232.02 3.92c-2.48 0.55-5.57 2.08-6.89 3.39-1.31 1.31-3.11 2.39-4 2.4-0.88 0-2.74 0.61-4.11 1.36-1.38 0.74-4.65 1.75-7.28 2.24-3.22 0.6-4.61 1.3-4.25 2.14 0.29 0.69 0.53 3.05 0.53 5.25 0 2.91 0.48 4.17 1.75 4.62 0.96 0.35 2.65 0.15 3.75-0.43 1.1-0.59 2.9-1.29 4-1.57 1.1-0.27 3.58-2.04 5.5-3.93 1.92-1.89 5.3-3.94 7.5-4.56 2.2-0.61 6.36-1.12 9.25-1.12l5.25-0.01c0-6.2-0.23-8.67-0.5-9.5-0.3-0.89-1.62-1.46-3.25-1.39-1.51 0.06-4.77 0.56-7.25 1.11zm-118.5 34.45c-0.46 0.36-0.76 1.94-0.67 3.5 0.09 1.56 3.84 9.92 8.31 18.58 4.48 8.66 9.1 16.99 10.25 18.51 1.16 1.52 3.46 3.31 5.11 3.97 1.65 0.66 4.91 1.1 7.25 0.99 2.34-0.12 5.15-0.67 6.25-1.22 1.1-0.55 2.27-2.01 2.6-3.25 0.33-1.24 0.11-3.26-0.5-4.5-0.6-1.24-2.11-2.36-3.34-2.5-1.36-0.15-2.81-1.43-3.68-3.25-0.8-1.65-2.27-3.9-3.27-5-1.01-1.1-3.51-5.49-5.57-9.77-3.21-6.65-4.1-7.76-6.24-7.72-1.73 0.03-3.73-1.35-6.5-4.45-2.74-3.07-4.81-4.49-6.58-4.52-1.42-0.02-2.96 0.26-3.42 0.63zm-107.15 5.57c-0.41 0.76-0.46 5.4-0.11 10.32 0.35 4.92 0.67 9.95 0.7 11.19 0.04 1.56 0.67 2.25 2.06 2.25 1.1 0 3.79-1.91 5.97-4.25 3.24-3.46 3.99-4.99 4.01-8.25 0.03-3.52-0.32-4.15-2.97-5.25-2.18-0.91-3.08-2-3.26-4-0.2-2.17-0.82-2.82-2.95-3.07-1.55-0.18-3.02 0.27-3.45 1.06z"/>
		<path id="Path 7" class="s7" d="m720.92 172.75c-2.43 0.82-5.93 2.22-7.78 3.12-1.85 0.89-4.1 2.33-5 3.18-0.9 0.85-3.11 2.43-4.9 3.5-2.15 1.28-3.26 2.72-3.25 4.2 0.01 1.73-0.62 2.31-2.74 2.5-2.2 0.2-2.75 0.75-2.75 2.75 0 2.11 0.75 2.74 4.77 4 2.62 0.82 4.61 1.95 4.42 2.5-0.19 0.55-1.44 1.15-2.77 1.32-1.33 0.18-4.22-0.39-6.42-1.27-2.2-0.88-4.9-1.33-6-1-1.17 0.36-2.78 2.54-3.9 5.28-1.04 2.57-2.51 6.7-3.26 9.17-0.75 2.47-1.36 7.31-1.35 10.75 0 3.44 0.54 7.26 1.18 8.5 0.65 1.24 1.77 2.81 2.5 3.5 0.73 0.69 2.34 1.24 3.58 1.23 1.24 0 2.92-0.43 3.75-0.94 1.18-0.74 1.28-1.53 0.49-3.74-0.56-1.54-2.03-3.25-3.26-3.8-1.23-0.55-2.24-1.34-2.23-1.75 0-0.41 1.01-0.97 2.25-1.24 1.24-0.26 3.38-0.48 4.75-0.48 2.19 0 2.66-0.66 3.8-5.26 0.71-2.9 2.34-7.07 3.62-9.27 1.28-2.2 4.98-6.48 8.21-9.52 3.23-3.04 8.67-6.86 12.1-8.5l6.22-2.98c-0.94-13.18-1.3-17.05-1.41-17.11-0.11-0.06-2.18 0.55-4.62 1.36zm82.08 33.96c-1.37 0.24-3.96 1.98-5.75 3.86l-3.25 3.43c3.85 14.06 4.18 17.56 3.87 26.62l-0.37 11.13c4.65-3.89 8.48-6.09 11.5-7.41 3.03-1.31 6.51-2.38 7.75-2.37 1.24 0.02 3.83 0.71 5.75 1.53 2.84 1.22 3.41 1.92 3 3.75-0.34 1.48 0.52 3.7 2.5 6.5 1.65 2.34 4.91 5.66 7.25 7.38 2.34 1.72 7.17 4.49 10.75 6.16 3.58 1.67 8.19 3.31 10.27 3.63 2.66 0.41 3.76 0.21 3.75-0.67-0.01-0.73 1.24-1.25 2.98-1.25 1.65 0 3.23-0.45 3.5-1 0.28-0.55 2.98-1 6-1 5.37 0 5.47-0.05 4.38-2.25-0.62-1.24-2.31-3.26-3.75-4.49-1.45-1.23-4.21-2.49-6.13-2.8-2.22-0.35-3.96-0.08-4.76 0.74-0.93 0.96-1 2.14-0.25 4.55 0.56 1.79 0.77 3.59 0.47 4-0.29 0.41-2.88-0.03-5.75-0.99-2.86-0.95-6.67-1.74-8.46-1.75-2.41-0.01-3.38-0.53-3.75-2.01-0.45-1.82 0-2 5-2 5.03 0 5.5-0.19 5.52-2.25 0.01-1.68-1.14-2.82-4.5-4.5-3.56-1.77-5.07-3.36-7.11-7.5-1.43-2.89-4.24-6.69-6.25-8.45-2.02-1.77-6.13-4.13-9.16-5.26-3.02-1.12-7.41-2.04-9.75-2.04-3.21 0-4.36-0.43-4.69-1.75-0.25-0.96-0.74-4.22-1.09-7.25-0.36-3.03-1.62-7.66-2.81-10.29-1.19-2.63-2.61-4.71-3.16-4.61-0.55 0.09-2.12 0.37-3.5 0.61zm-112 47.29c0 1.1-0.94 2.56-2.08 3.25-1.85 1.11-1.96 1.64-1 4.75 0.6 1.93 2.01 5.07 3.13 7 1.9 3.23 2.15 3.36 3.25 1.66 0.85-1.31 2.56-1.89 5.89-2 2.59-0.09 5.2-0.61 5.82-1.16 0.81-0.72 0.37-2.38-1.6-6-1.96-3.61-3.92-5.62-7.06-7.25-2.39-1.24-4.8-2.25-5.35-2.25-0.55 0-1 0.9-1 2zm99.7 10.42l-2.7 3.58c4.8 7.3 5.63 10.02 6 14.88 0.49 6.36 0.61 6.61 5 9.89 2.48 1.85 5.29 4.01 6.25 4.79 0.96 0.79 3.66 2.07 6 2.84 2.34 0.77 6.73 1.87 9.75 2.44 3.03 0.57 7.75 0.83 10.5 0.57 2.75-0.25 6.13-0.7 7.5-0.99 1.38-0.3 4.65-1.52 7.27-2.73 3.66-1.68 4.77-2.72 4.75-4.44-0.01-1.24 0.65-2.48 1.48-2.75 0.83-0.27 2.17-0.05 3 0.5 1.08 0.72 2.49 0.44 5-1 1.92-1.1 3.5-2.68 3.5-3.5 0-0.82-0.95-1.84-2.11-2.25-1.16-0.41-2.96-2.21-4-4-1.04-1.79-2.34-3.25-2.89-3.25-0.55 0-3.14 1.15-5.75 2.55-2.61 1.4-7.22 3.26-10.25 4.13-3.56 1.02-7.79 1.42-12 1.13-4.51-0.32-8.56-1.42-13.25-3.63-3.71-1.75-9.03-5.32-11.81-7.93-3.31-3.11-5.66-6.41-6.8-9.58l-1.75-4.82zm-81.69 17.57c0 1.72 0.53 3.02 1.25 3.04 0.68 0.01 2.02-0.77 2.97-1.75 0.95-0.98 1.74-2.35 1.75-3.04 0.01-0.72-1.23-1.25-2.97-1.25-2.67 0-3 0.34-3 3zm69.04 6.59c-2.61 1.94-3.39 3.21-3.23 5.24 0.12 1.47-0.27 3.12-0.86 3.67-0.59 0.55-0.94 1.78-0.77 2.72 0.17 0.94 5.27 5.09 11.32 9.23 9.68 6.62 11.17 7.34 12.5 6.06 0.82-0.8 2.85-1.49 4.5-1.52 1.65-0.04 3.54 0.51 4.2 1.22 0.67 0.71 1.5 3.32 1.84 5.79 0.57 4.04 1.21 4.92 6.15 8.5 4.59 3.32 5.67 3.75 6.4 2.5 0.48-0.82 0.87-2.17 0.87-3-0.01-1.19 0.67-1.33 3.26-0.71 1.8 0.44 3.61 1.34 4.01 2 0.4 0.67 0.74 1.78 0.75 2.46 0.01 0.69-0.43 1.25-0.98 1.25-0.55 0-1.02 1.02-1.04 2.25-0.04 1.78 2.34 3.84 11.23 9.75 6.2 4.13 12.99 9.08 15.09 11 3.62 3.32 3.9 3.41 5.52 1.76 1.6-1.65 1.47-1.98-2.3-5.9-2.2-2.29-4.79-4.99-5.75-6.01-1.06-1.11-1.98-4.14-2.31-7.6l-0.56-5.75c-11.54-8.13-15.11-10.5-15.38-10.5-0.28 0-3.32-2-6.75-4.46-3.44-2.45-6.82-4.48-7.5-4.5-0.69-0.02-3.28-1.61-5.75-3.54-2.48-1.92-4.95-3.5-5.5-3.5-0.55 0-4.27-2.4-8.25-5.34-3.99-2.94-8.87-6.43-10.85-7.75-1.97-1.32-3.43-2.97-3.25-3.66 0.19-0.68-0.22-1.94-0.9-2.79-0.69-0.85-1.48-1.52-1.75-1.49-0.28 0.03-2.06 1.21-3.96 2.62zm-115.29 74.85c-3.93 5.81-4.79 6.5-11.25 8.95-3.85 1.46-7.57 2.64-8.25 2.63-0.69-0.01-2.04 0.38-3 0.87-0.97 0.49-12.55 4.4-25.75 8.7-13.2 4.31-24.57 8.18-25.25 8.62-0.69 0.44-1.03 1.81-0.76 3.04 0.35 1.57-0.41 3.24-2.5 5.5-2.95 3.2-3.05 3.23-6.74 1.84l-3.75-1.41c-6.2 6.54-9.24 8.75-10.75 9.13-2.26 0.57-4.31-0.29-11.5-4.83-4.82-3.04-9.77-5.52-11-5.5-1.24 0.01-2.25 0.47-2.25 1.02 0 0.55-0.68 1-1.5 1-0.83 0-1.5 0.79-1.49 1.75 0.01 0.97-0.46 2.2-1.03 2.75-0.58 0.55-0.8 2.13-0.48 3.5 0.43 1.88 3.74 4.48 13.29 10.46 6.99 4.38 13.94 8.09 15.46 8.25 2.18 0.23 3.62-0.67 7-4.34 2.33-2.55 5.93-5.48 8-6.5 2.06-1.03 4.65-1.87 5.75-1.87 1.63 0 1.95-0.58 1.75-3.21-0.24-2.98 0.08-3.34 4.25-4.84 2.47-0.89 18.67-6.45 36-12.34 23.56-8.02 31.5-11.12 31.5-12.31 0-0.88 1.33-2.01 3-2.54 2.27-0.73 3.15-0.64 3.63 0.39 0.35 0.74 1.14 1.02 1.75 0.6 0.61-0.41 3.82-4.8 7.12-9.75 3.3-4.95 5.82-9.33 5.61-9.75-0.21-0.41-2.23-1.08-4.5-1.5-2.26-0.41-5.01-1.62-6.11-2.68-1.99-1.92-2.03-1.89-6.25 4.37zm-141.34 36.33c-0.59 0.4-4.82 5.91-9.39 12.23-4.57 6.33-8.47 12.07-8.66 12.75-0.2 0.69 0.09 1.25 0.64 1.25 0.55 0 1.78-1.08 2.75-2.4 1.01-1.39 3.42-2.79 5.75-3.31 2.2-0.5 6.13-2.35 8.75-4.1 2.61-1.75 5.42-4.2 6.25-5.44 0.83-1.23 1.49-3.82 1.46-5.75-0.02-2.12-0.72-3.98-1.75-4.71-0.95-0.67-2.39-1.23-3.21-1.24-0.83-0.01-1.99 0.32-2.59 0.72zm115.09 30.98c-9.9 2.5-18.12 4.6-18.25 4.65-0.14 0.06 0.2 2.47 0.75 5.35l1 5.25c15.88 0.03 21.51 0.25 22.75 0.52 1.72 0.37 2.25 1.18 2.25 3.48 0 2.34 0.44 3 2 3 1.51 0 1.99-0.66 1.99-2.75-0.01-1.51 0.67-3.76 1.5-5 1.14-1.7 2.47-2.25 5.51-2.25 2.2 0 4-0.45 4-1 0-0.55-0.39-1.78-0.87-2.75-0.48-0.96-1.32-3.1-1.87-4.75-0.55-1.65-0.89-4.23-0.76-5.75 0.14-1.55-0.24-2.7-0.88-2.65-0.62 0.05-9.22 2.14-19.12 4.65zm-132.48 0.5c0.01 0.69-1.14 2.38-2.56 3.75-2.15 2.09-2.53 3.25-2.27 7 0.29 4.23 0.48 4.5 3.21 4.5 2.32 0 3.66-1 6.64-5 2.93-3.92 3.65-5.7 3.35-8.25-0.37-3.06-0.63-3.25-4.39-3.25-2.55 0-4 0.46-3.98 1.25zm297.16 5c0.28 2.85 0.68 3.25 3.21 3.25 1.59 0 3.39-0.74 4-1.66 0.84-1.27 0.75-2.05-0.39-3.29-0.83-0.9-2.77-1.61-4.32-1.59-2.57 0.04-2.79 0.33-2.5 3.29zm27.48 10c0.28 1.79-0.18 5.95-1.04 9.25-0.87 3.34-1.24 7-0.84 8.24 0.52 1.65 1.71 2.38 4.47 2.75 2.06 0.28 3.97 0.96 4.25 1.51 0.27 0.55 1.62 1 3 1 1.92 0 2.5-0.51 2.5-2.25 0-1.23 0.43-3.82 0.96-5.75 0.52-1.92 2.09-5.18 3.49-7.25 1.4-2.06 2.32-4.42 2.05-5.25-0.3-0.88-1.73-1.5-3.5-1.5-1.65 0-4.58-0.9-6.5-2-1.93-1.1-4.82-2-6.43-2-2.74 0-2.89 0.21-2.41 3.25zm105.84 32.44c-1.41 0.33-1.92 1.17-1.75 2.89 0.16 1.58-0.62 3.12-2.25 4.42-2.25 1.8-2.42 2.44-1.73 6.25l0.78 4.25 16.45 0.5c-0.58-4.26-1.36-8.53-2.12-12.25-1.35-6.58-1.46-6.75-4.38-6.63-1.65 0.06-3.9 0.32-5 0.57zm-475.92 21.81c-0.32 0.83-1.48 1.5-2.58 1.5-1.1 0-2.23 0.45-2.5 1-0.28 0.55-2.53 1-5 1h-4.5c0 13.84 0.09 14.1 4 18 2.2 2.2 4.45 4 5 4 0.55 0 4.93 2.51 9.75 5.57 4.81 3.06 9.31 6.44 10 7.5 0.68 1.06 1.7 1.93 2.25 1.93 0.55 0 1-0.67 1-1.5 0-0.82 1.31-2.96 2.92-4.75l2.93-3.25c-8.8-5.25-14.5-8.85-18.35-11.38-3.85-2.54-7.34-5.07-7.74-5.62-0.4-0.55-0.74-1.33-0.75-1.75-0.01-0.41 1.11-1.2 2.49-1.75 1.63-0.65 2.49-1.77 2.48-3.25 0-1.23 0.2-3.71 0.45-5.5 0.26-1.78 0.08-3.25-0.4-3.25-0.47 0-1.13 0.68-1.45 1.5zm351.68 13.01c0.13 1.37 0.8 2.5 1.49 2.5 0.68 0 1.47-0.46 1.75-1.01 0.27-0.55-0.07-1.69-0.75-2.54-0.69-0.85-1.59-1.52-1.99-1.5-0.41 0.02-0.63 1.17-0.5 2.55zm-281.26 2.49c0 1.5-0.5 1.88-2 1.5-1.38-0.34-2.37 0.21-3.18 1.75-0.64 1.24-1.77 2.82-2.5 3.5-0.79 0.75-1.32 3.48-1.32 6.75 0 5.05 0.18 5.5 2.25 5.46 1.23-0.02 2.92 0.67 3.75 1.54 0.82 0.88 2.17 1.58 3 1.56 1.14-0.03 1.68-2 2.28-8.3 0.43-4.54 0.93-9.94 1.1-12.01 0.26-3.09-0.01-3.75-1.54-3.75-1.18 0-1.84 0.73-1.84 2zm116 35v30c5.03 0.04 7.29 0.83 8.25 1.78 0.97 0.95 1.93 1.5 2.15 1.22 0.22-0.27 1.62-9.05 3.11-19.5 1.48-10.45 2.99-19.61 3.34-20.36 0.39-0.81-0.36-2.08-1.85-3.16-2.26-1.63-2.38-2.06-1.25-4.39 0.68-1.42 1.25-3.04 1.25-3.59 0-0.55-0.81-1-1.8-1-0.99 0-2.34 0.57-2.99 1.25-0.94 1-1.71 0.74-3.73-1.25-1.94-1.91-2.53-3.5-2.51-6.75 0.02-3.59-0.28-4.25-1.97-4.25-1.96 0-2 0.67-2 30zm171.98-2.25c0 0.97 0.72 5.13 1.62 9.25 0.9 4.13 2.02 8.63 2.5 10 0.47 1.38 1.88 3.12 3.13 3.88 1.24 0.75 3.05 1.09 4.02 0.75 1.43-0.51 1.63-1.39 1.13-4.88-0.34-2.33-0.88-4.7-1.19-5.25-0.32-0.55-0.72-3.47-0.88-6.5-0.17-3.02-0.53-6.28-0.81-7.25-0.38-1.33-1.58-1.75-5-1.75-3.62 0-4.51 0.35-4.52 1.75zm130.02 25.25c0 1.1 1.1 6.62 2.46 12.25 1.35 5.64 3.85 16.33 5.54 23.75 2.45 10.71 2.82 13.66 1.79 14.24-0.71 0.4-2.08 0.74-3.04 0.75-0.97 0.01-2.43 0.24-3.25 0.51-0.83 0.28-1.5 1.63-1.5 3 0 1.94 0.39 2.37 1.75 1.93 0.96-0.31 3.85-0.87 6.42-1.25l4.67-0.68c2.45 6.59 3.64 8.5 4.23 8.5 0.59 0 2.33-1.23 3.87-2.75 1.53-1.51 3.38-4.77 4.12-7.25 1.08-3.65 1.1-5.81 0.1-11.5-0.68-3.85-2.01-9.37-2.95-12.26-1.21-3.72-2.23-5.27-3.46-5.25-0.97 0.01-3.22-0.71-5-1.6-1.79-0.89-4.29-2.8-5.55-4.25-1.26-1.45-2.72-4.21-3.24-6.14-0.53-1.92-0.96-4.17-0.98-5-0.01-0.82-0.57-3.19-1.25-5.27-0.81-2.48-1.84-3.76-2.98-3.75-1.08 0.02-1.75 0.8-1.75 2.02zm-303 32c0 1.65 0.22 3.68 0.5 4.5 0.27 0.83 1.17 1.5 2 1.5 0.82 0 1.72-0.45 2-1 0.27-0.55 0.27-2.57 0-4.5-0.39-2.66-0.98-3.5-2.5-3.5-1.56 0-2 0.67-2 3zm-124.44 15.75c-0.34 1.52-0.49 2.85-0.34 2.96 0.15 0.11 1.75 0.56 3.55 1 2.38 0.58 3.27 0.45 3.25-0.46-0.01-0.68-0.47-1.47-1.02-1.75-0.55-0.27-1-1.4-1-2.5 0-1.3-0.67-2-1.92-2q-1.9 0.01-2.52 2.75zm69.59 7.85l-0.17 7.9c12.8 1.16 19.55 1.49 23.27 1.5h6.75c0-7.39 0.45-8.26 3.01-9.75 1.95-1.13 3-2.54 3-4-0.01-2.07-0.47-2.25-5.76-2.24-3.17 0-11.19-0.3-17.84-0.66l-12.09-0.65zm-66.53 2.77c-0.35 0.9-0.4 2.08-0.12 2.63 0.27 0.55 3.42 1 7 1 5.83 0 6.5-0.2 6.5-2 0-1.51-0.68-2-2.75-2.01-1.52-0.01-4.39-0.29-6.38-0.63-2.82-0.48-3.77-0.25-4.25 1.01zm384.37 10.38c0 3.29 0.4 3.92 3.25 5.12 1.79 0.75 4.27 1.08 5.51 0.75 1.42-0.39 2.44-1.62 2.77-3.37q0.53-2.75-1.25-4.53c-1.16-1.17-3.24-1.77-6.02-1.75-4.24 0.03-4.25 0.04-4.26 3.78zm-74.69 8.5c-1.12 1.24-2.77 3.49-3.67 5-1.35 2.27-2.33 2.75-5.63 2.75-2.2 0-4 0.45-4 1 0 0.55 0.63 2.46 1.42 4.25 0.78 1.79 2.69 6.3 4.25 10.03 1.55 3.73 3.05 6.78 3.33 6.78 0.27 0.01 1.4-0.94 2.5-2.1 1.1-1.15 3.35-2.75 5-3.55 1.65-0.8 3.78-1.44 4.75-1.43 0.96 0.01 1.73-0.54 1.71-1.23-0.02-0.69-0.68-2.37-1.46-3.75-0.79-1.37-1.45-3.17-1.48-4-0.03-1.14 1.7-1.66 7.22-2.17 3.99-0.37 8.04-0.93 9.01-1.25 1.38-0.46 1.75-1.73 1.75-6.08 0-4.8-0.23-5.42-1.75-4.89-0.97 0.34-3.71 0.84-6.1 1.11-3.21 0.37-4.71 0.08-5.75-1.11-0.83-0.95-2.96-1.61-5.24-1.61-2.7 0-4.43 0.66-5.86 2.25zm-154.91 61c-0.42 0.74 0.37 2.17 1.95 3.5 1.79 1.52 3.96 2.25 6.66 2.25 3.9 0 4-0.08 4-3.5v-3.5c-9.67 0-12.17 0.47-12.61 1.25z"/>
		<path id="Path 8" class="s8" d="m727.05 170.66q-1.45 0.51-1.26 4.17c0.11 2.02 0.54 5.84 0.95 8.5 0.71 4.52 0.92 4.8 3.26 4.23 1.38-0.33 4.16-0.93 6.19-1.33 3.08-0.61 3.79-1.23 4.26-3.73 0.32-1.65 0.57-5.14 0.56-7.75l-0.01-4.75c-9.69 0.12-13.15 0.38-13.95 0.66zm49.84 7.68c0.09 2.18-0.79 4.24-2.84 6.66-1.63 1.93-3 3.95-3.04 4.5-0.04 0.55 1.07 1.56 2.46 2.25 1.39 0.69 2.98 1.03 3.53 0.75 0.55-0.28 1-1.29 1-2.25-0.01-0.96 1.17-3.55 2.61-5.75 2.34-3.57 2.47-4.24 1.26-6.24-0.76-1.23-2.21-2.42-3.24-2.65-1.54-0.35-1.85 0.13-1.74 2.73zm89.59 90.16c-0.27 0.82-0.7 2.18-0.98 3-0.27 0.82-1.17 1.5-2 1.5-0.83 0-3.03 1.24-4.9 2.75l-3.41 2.75c4.12 5.88 5.87 7.56 6.56 7.54 0.69-0.02 1.48 0.64 1.75 1.46 0.4 1.2 0.94 1.28 2.75 0.38 1.24-0.62 3.72-2.53 5.52-4.25 1.8-1.72 3.26-3.69 3.25-4.38-0.01-0.69 0.65-1.25 1.48-1.25 1.15 0 1.5-1.28 1.5-5.5v-5.5c-9.56 0-11.18 0.4-11.52 1.5zm-149.48 9.8c-0.83 0.69-1.99 2.14-2.6 3.22-0.6 1.09-2.01 2.43-3.14 2.98-1.12 0.55-2.42 1.37-2.9 1.83-0.47 0.45 0.72 2.1 2.64 3.65l3.5 2.83c-7.33 6.73-11.65 12.07-14.33 16.19l-4.87 7.5c4.85 0.5 7.51 1.91 9.2 3.56l3 2.92c6.22-9.1 7.49-12.09 7.48-14.23-0.02-2.54 0.91-4.15 4.25-7.34 2.35-2.25 5-5.17 5.89-6.5 1.46-2.17 1.79-2.26 3.29-0.91 0.93 0.82 1.66 2.06 1.63 2.75-0.02 0.69 0.41 1.25 0.96 1.25 0.55 0 2.13-0.45 3.5-1 2.3-0.92 2.48-1.45 2.25-6.65l-0.25-5.65c-9.44-2.7-10.11-2.69-11-1.32-0.55 0.85-1.79 1.56-2.75 1.58-1.34 0.03-1.63-0.55-1.25-2.46 0.28-1.37-0.06-3.2-0.75-4.04-0.69-0.85-1.47-1.51-1.75-1.47-0.27 0.04-1.17 0.63-2 1.31zm34.25 7.34c-1.87 0.3-2.25 1-2.26 4.11-0.01 3.72 0.04 3.76 5.25 4.89 2.89 0.63 5.32 1.08 5.4 1 0.08-0.08 0.04-2.5-0.08-5.39-0.21-5.12-0.29-5.25-3.14-5.11-1.6 0.07-3.93 0.3-5.17 0.5zm-81.87 67.82c-1 1.36-1.72 3.16-1.6 4 0.12 0.85 1.68 2.15 3.47 2.9 1.79 0.75 4.71 1.65 6.5 2 3.05 0.6 3.45 0.33 6.5-4.41 2.49-3.88 2.98-5.33 2.08-6.25-0.91-0.93-1.7-0.8-3.5 0.56-1.28 0.96-3.23 1.77-4.33 1.79-1.1 0.02-2.67-0.68-3.5-1.55-0.83-0.87-2.02-1.57-2.65-1.54-0.64 0.02-1.97 1.15-2.97 2.5zm117.67 21.2c-1.02 0.36-1.39 1.83-1.25 4.92 0.15 3.29 0.71 4.67 2.2 5.42 1.1 0.55 2.45 1 3 1 0.55 0 0.98-0.79 0.96-1.75-0.03-0.96 0.67-2.42 1.54-3.25 0.87-0.82 1.57-2.74 1.54-4.25-0.04-2.44-0.4-2.74-3.29-2.67-1.79 0.04-3.9 0.3-4.7 0.58zm76.5 9.34c-0.3 0.55 0.01 3.71 0.7 7.02 0.69 3.31 1.5 6.01 1.8 6 0.3-0.01 1.1-0.58 1.77-1.27 0.67-0.69 1.2-2.15 1.18-3.25-0.02-1.1-0.59-3.7-1.27-5.77-0.67-2.08-1.77-3.77-2.43-3.75-0.66 0.01-1.45 0.47-1.75 1.02zm-334.55 21c0 3.71 0.2 4 2.8 4 1.54 0 3.35-0.56 4.02-1.25 0.67-0.69 1.21-2.49 1.2-4-0.02-2.54-0.33-2.75-4.02-2.75h-4zm257.55 25c-0.3 0.55 0.69 2.79 2.2 4.98 2.55 3.68 3.1 3.98 7.5 4l4.75 0.02c0-5.42-0.22-7.67-0.5-8.5-0.38-1.13-2.11-1.5-6.95-1.5-3.55 0-6.7 0.45-7 1zm96.45 0.73l-5.5 0.35c1.34 7.06 1.17 8.03 0 8.42-0.83 0.27-1.27 0.95-1 1.5 0.3 0.6 2.61 0.75 5.75 0.38 2.89-0.34 5.7-1.22 6.25-1.96 0.55-0.74 1.67-1.37 2.5-1.41 0.83-0.04 2.29 0.84 3.25 1.96 1.32 1.54 1.51 2.52 0.75 4.03q-1 2 0 10.25c0.55 4.54 1.22 9.04 1.5 10 0.27 0.96 1.4 1.75 2.5 1.75 1.1 0 2.23-0.67 2.5-1.5 0.28-0.82 1.63-1.95 3-2.5 2.32-0.93 2.5-1.48 2.48-7.75-0.01-5.23-0.52-7.56-2.25-10.34-1.22-1.98-3.2-5.13-4.39-7-1.36-2.14-3.79-4.06-6.5-5.15-2.39-0.96-4.56-1.67-4.84-1.57-0.27 0.1-2.97 0.34-6 0.54zm-52.81 1.65c-4.58 0.96-5.25 1.4-4.81 3.12 0.28 1.1 0.98 3.24 1.56 4.75 0.83 2.15 1.71 2.75 4.06 2.75 1.65 0 4.58 0.9 6.5 2 1.92 1.1 4.63 2 6 2 1.93 0 2.37-0.4 1.94-1.75-0.31-0.96-1.21-3.89-2-6.5-0.79-2.61-2-4.73-2.69-4.71-0.69 0.03-1.92-0.67-2.75-1.54-0.83-0.87-1.72-1.51-2-1.41-0.27 0.09-2.89 0.68-5.81 1.29zm-179.74 12.84c-0.9 1.22-1.6 3.47-1.55 5 0.1 2.72 0.23 2.78 6.1 2.78h6c0-5.42-0.22-7.67-0.5-8.5q-0.51-1.5-4.45-1.5c-2.92 0-4.38 0.58-5.6 2.22zm-168.29 7.71l-3.16 4.07c4.26 0.03 6.63 0.92 8 2 1.38 1.08 2.73 1.98 3 2.01 0.28 0.02 2.08-2.03 4-4.56 2.19-2.88 3.13-4.91 2.5-5.42-0.55-0.46-3.29-1.13-6.09-1.5-5.05-0.67-5.11-0.65-8.25 3.4zm189.93 9.85c-0.49 0.94-2.51 5.66-4.49 10.47-1.98 4.81-3.61 9.09-3.62 9.5 0 0.41 2.36 1.09 5.25 1.51 3.77 0.54 5.64 0.4 6.56-0.5 0.72-0.69 1.29-1.93 1.27-2.76-0.01-0.82 0.75-3.18 1.71-5.22 0.95-2.05 2.29-3.74 2.98-3.75 0.76-0.02 1.25-1.41 1.25-3.53 0-2.67-0.42-3.5-1.75-3.5-0.96-0.01-3.22-0.89-5.01-1.98-3.04-1.84-3.31-1.85-4.15-0.24zm-144.13 3.9c-2.1 1.34-2.67 2.71-3.26 7.73-0.39 3.35-0.71 7.55-0.71 9.34 0.01 3.14 0.13 3.23 3.51 2.75 2.67-0.38 3.5-0.14 3.5 1 0 0.89-0.91 1.49-2.25 1.48-1.24-0.01-2.98 0.56-3.88 1.25-0.94 0.74-1.86 3.37-2.17 6.27l-0.55 5h11.58c1.04-17.05 1.5-25.26 1.71-29.25l0.37-7.25c-4.12 0.04-6.46 0.79-7.85 1.68zm-72.05 21.23c-6.23 8.2-11.23 15.18-11.12 15.5 0.12 0.32 1.79 0.59 3.71 0.59 1.93 0 4.29-0.42 5.25-0.93 0.96-0.51 2.54-1.18 3.5-1.5 1.11-0.36 1.74-1.57 1.72-3.32-0.01-1.71 0.99-3.69 2.65-5.25 1.46-1.37 3.84-4.33 5.27-6.56 2.04-3.16 2.55-5.09 2.34-8.75-0.15-2.58-0.66-4.69-1.14-4.69-0.47 0-5.95 6.71-12.18 14.91zm470.7-9.97c-0.33 0.58-0.38 2.86-0.11 5.06 0.28 2.24 1.05 4.01 1.75 4.03 0.69 0.02 2.05-0.77 3.03-1.75 1.1-1.1 1.68-2.93 1.5-4.78-0.22-2.41-0.8-3.06-2.92-3.31-1.45-0.17-2.91 0.17-3.25 0.75zm8.95 35.31c-1.8 2.19-1.8 2.49 0.25 11.75 1.16 5.23 2.35 11.19 2.65 13.25 0.4 2.8 1.18 4 3.04 4.75 1.54 0.62 2.86 2.24 3.45 4.25 0.53 1.79 1.88 7.41 3 12.5 1.13 5.09 2.5 9.25 3.05 9.25 0.55 0 1-0.67 1-1.5 0-0.83 0.79-1.75 1.75-2.04 0.96-0.3 3.19 0.26 4.96 1.25 1.76 0.98 3.43 1.56 3.71 1.29 0.28-0.27-0.42-4.33-1.55-9-1.12-4.67-2.43-11.42-2.9-15-0.47-3.58-2.35-11.57-4.17-17.76l-3.3-11.26c-8.43 0.02-9.78-0.43-10.75-1.98-0.69-1.11-1.49-2.01-1.79-2-0.3 0-1.38 1.01-2.4 2.25zm-123.06 2.29c-1.91 1.42-1.94 1.84-0.69 9.22 0.73 4.26 1.63 8.33 2 9.06 0.57 1.08 1.43 1.08 4.96 0 3.39-1.05 4.27-1.79 4.25-3.57-0.01-1.24-0.36-2.41-0.77-2.61-0.41-0.19-2.21-3.34-4-7-1.79-3.65-3.36-6.63-3.5-6.61-0.14 0.02-1.15 0.7-2.25 1.51zm-334.03 19.54c-1.49 1.69-2.67 3.83-2.62 4.75 0.04 0.92 2.79 3.58 6.11 5.92 3.32 2.34 6.27 4.25 6.54 4.25 0.27 0 0.49-1.69 0.48-3.75-0.01-2.06 0.44-4.31 1-5 0.74-0.91-0.07-2.34-2.98-5.25-2.2-2.2-4.41-4-4.92-4-0.5 0-2.13 1.38-3.61 3.08zm28.11 12.42c-0.32 0.83-0.58 1.73-0.58 2 0 0.27 1.46 1.11 3.25 1.85 1.79 0.74 4.26 1.64 5.5 2 1.47 0.42 2.27 0.22 2.3-0.6 0.02-0.69-1.55-2.49-3.5-4-1.95-1.51-4.19-2.75-4.97-2.75-0.77 0-1.67 0.67-2 1.5zm5 58c-0.32 0.83-0.59 3.64-0.6 6.25l-0.01 4.75c7.53-1.41 8.12-1.24 8.78 0.57 0.54 1.49 1.45 1.98 3.25 1.75 2.31-0.3 2.52-0.77 2.82-6.32l0.32-6c-7.38 1.36-8.61 1.13-10.64-0.5-1.37-1.1-2.69-2-2.92-2-0.22 0-0.67 0.67-1 1.5zm138.94 6.89c-1.69 1.13-1.95 2.32-1.75 7.97 0.13 3.65-0.11 6.81-0.52 7.03-0.41 0.21-1.09 2.46-1.5 5-0.62 3.82-0.4 5.08 1.28 7.36 1.12 1.51 2.02 2.3 1.99 1.75-0.03-0.55 0.52-0.43 1.21 0.27 0.7 0.69 1.72 1.26 2.27 1.26 0.55 0 1.3-1.92 1.66-4.26 0.53-3.4 0.27-4.78-1.28-6.77-1.07-1.37-1.93-3.06-1.91-3.75 0.01-0.69 0.48-1.25 1.03-1.25 0.55 0 1.23 0.45 1.5 1 0.27 0.55 0.95 1 1.5 1 0.6 0 0.79-1.89 0.46-4.75-0.29-2.61-0.66-6.66-0.82-9-0.19-2.91-0.73-4.24-1.71-4.22-0.79 0.02-2.32 0.63-3.41 1.36zm179.98-0.72c-0.46 0.36-0.76 1.94-0.67 3.5 0.14 2.31-0.43 3.09-3.08 4.23-1.79 0.77-7.08 2.2-11.75 3.17-4.67 0.97-8.95 2.12-9.5 2.56-0.64 0.52-0.15 2.7 1.37 6.09 1.31 2.9 3.18 7.08 4.15 9.28 0.98 2.2 3.06 7.27 4.63 11.28l2.85 7.28c7.6-0.06 8.35-0.53 11.51-4.81 2.51-3.4 4.29-4.82 6.25-5 2.62-0.24 2.74-0.48 2.74-5.75 0-3.52 0.45-5.64 1.25-5.89 0.96-0.3 0.72-3.12-1.04-12.25-1.26-6.52-2.83-12.44-3.5-13.15-0.67-0.72-1.92-1.28-2.79-1.25-0.87 0.02-1.96 0.34-2.42 0.71zm-272.8 10.95c-0.52 1.28-0.28 2.12 0.76 2.63 0.85 0.41 1.54 1.42 1.54 2.25q0.01 1.52-1.75 0.83c-0.96-0.36-5.12-0.87-9.25-1.12-6.95-0.42-7.56-0.29-8.25 1.67-0.41 1.17-1.65 2.35-2.75 2.62-1.17 0.29-2 1.33-2 2.5 0 1.49 0.83 2.13 3.25 2.5 1.79 0.27 13.71 0.61 26.5 0.75l23.25 0.25v-15.5c-12.01 0.01-18.88-0.28-23.02-0.63-6.76-0.57-7.59-0.45-8.28 1.25zm63.3 7.05c-2.06 1.3-2.45 2.26-2.25 5.45l0.25 3.88h18v-11c-11.07 0.09-14.4 0.67-16 1.67zm96.71 8.03c-0.35 3.19-0.94 9.85-1.31 14.8-0.59 7.79-0.46 9.1 0.96 9.75 0.95 0.43 1.63 1.91 1.62 3.5-0.02 2.36 0.57 2.94 4.25 4.12 2.35 0.76 4.72 1.56 5.27 1.79 0.55 0.23 1.56-1.29 2.23-3.37 0.68-2.09 1.24-8.63 1.25-14.54 0.02-10.09-0.1-10.75-1.98-10.75-1.26 0-2.39-1.02-3.05-2.75-0.58-1.51-0.92-3.87-0.75-5.25 0.27-2.27-0.08-2.53-3.78-2.8l-4.07-0.3zm185.29 5.3c0 3.33 0.33 4 2 4 1.66 0 2-0.67 2-4 0-3.33-0.34-4-2-4-1.67 0-2 0.67-2 4zm-44.42 6.06c-1.57 0.85-1.89 2.03-1.75 6.49l0.17 5.45c7.36-0.98 9.54-1.32 9.59-1.38 0.05-0.07-0.18-2.6-0.5-5.62-0.53-4.95-0.84-5.53-3.09-5.74-1.38-0.14-3.37 0.22-4.42 0.8zm-193.57 12.19c0 1.24 0.28 5.17 0.62 8.75 0.62 6.47 0.64 6.5 3.45 6 2.63-0.47 2.86-0.9 3.37-6.25 0.3-3.16 1-5.98 1.55-6.25 0.55-0.28 1-1.4 1-2.5 0-1.73-0.67-2-5-2-4.52 0-5 0.21-4.99 2.25zm170.15 14.21c-1.28 0.69-3.45 2.34-4.81 3.65-1.72 1.67-2.3 3.07-1.91 4.64 0.5 2.03-0.66 2.86-11.97 8.5-11.81 5.88-12.5 6.39-11.92 8.75 0.34 1.37 1.14 3.08 1.78 3.79 0.64 0.72 1.96 1.28 2.92 1.25 0.96-0.02 2.24 0.97 2.85 2.21 0.61 1.24 0.83 3.26 0.5 4.5-0.33 1.24-0.15 2.25 0.4 2.25 0.55 0 4.04-1.97 7.75-4.38 3.71-2.4 8.32-5.21 10.25-6.25 1.93-1.03 5.41-3.22 7.73-4.87 2.32-1.65 4.96-4.58 5.87-6.5 0.9-1.93 1.64-5.3 1.64-7.5 0-2.2-0.73-5.69-1.62-7.75-1.33-3.09-2.11-3.73-4.37-3.65-1.51 0.05-3.8 0.66-5.09 1.36zm-111.16 4.44c-0.83 0.48-1.16 1.38-0.75 1.99 0.41 0.61 0.52 1.78 0.25 2.61-0.34 1.02-1.86 1.5-4.75 1.49l-4.25-0.01-1.5 16.02h-14c0 6.91-0.11 7.01-4.25 7.25l-4.25 0.25-0.5 8.5c24.05 0 28.77-0.4 30.75-1.41 1.51-0.77 3.76-2.46 5-3.75 1.91-1.99 2.4-4.06 3.23-13.84 0.54-6.33 0.99-13.41 1-15.75 0.02-3.75-0.25-4.25-2.23-4.24-1.24 0.01-2.93 0.41-3.75 0.89zm-55.83 23.84c0.2 1.69 1 2.84 2.08 3 1.33 0.2 1.75-0.45 1.75-2.74 0-2.37-0.44-3-2.08-3-1.67 0-2.01 0.53-1.75 2.74z"/>
		<path id="Path 9" class="s9" d="m782.73 179.42c0.15 0.87-0.86 3.27-2.23 5.33-1.38 2.06-2.51 4.54-2.5 5.5 0 0.96-0.45 1.98-1 2.25-0.55 0.28 0.69 1.77 2.75 3.31 2.06 1.55 5.14 4.59 6.84 6.75 1.69 2.17 3.94 5.41 5 7.2 1.05 1.8 2.36 3.27 2.91 3.27 0.55 0.01 2.01-1.35 3.25-3.01 1.24-1.66 3.15-3.02 4.25-3.02 1.1 0 2.67-0.22 3.5-0.5 0.83-0.27 1.5-0.95 1.5-1.5 0-0.55-1.73-3.59-3.84-6.75-2.11-3.16-7.32-8.9-11.57-12.75-4.26-3.85-8.05-7.15-8.43-7.33-0.39-0.19-0.58 0.38-0.43 1.25zm-97.22 74.16c0.28 2.16 0.76 4.15 1.05 4.42 0.3 0.27 1.31 0 2.24-0.6 0.94-0.61 1.81-2.29 1.95-3.75 0.17-1.8-0.23-2.65-1.25-2.65-0.83 0-2.18-0.3-3-0.67-1.24-0.55-1.42 0.02-0.99 3.25zm169.65 3.81c-0.14 2.21 0.26 2.61 2.59 2.64 1.6 0.02 3.43-0.82 4.37-2 1.54-1.94 1.49-2.03-1.25-2.03-1.58 0-3.47-0.27-4.21-0.61-0.92-0.41-1.4 0.22-1.5 2zm-150 10.85c-1.59 1.91-1.45 2.18 3.34 6.38 2.75 2.42 5.79 4.39 6.75 4.39 0.96-0.01 1.97-0.46 2.25-1.01 0.27-0.55-2.01-3.42-5.09-6.37-5.47-5.27-5.62-5.34-7.25-3.39zm77.56 4.33c-2.59 2.44-4.72 4.77-4.71 5.18 0.01 0.41 2.26 0.52 5.01 0.25 3.01-0.3 4.99-0.1 4.96 0.5-0.02 0.55-1.35 2.35-2.96 4-2.82 2.88-2.87 3.08-1.23 5.12 1.52 1.88 1.95 1.97 3.96 0.75 1.24-0.75 3.15-1.14 4.25-0.87 1.78 0.44 2 0 2-4 0-2.48-0.65-5.96-1.44-7.75-0.79-1.79-2.26-4.23-3.27-5.43l-1.84-2.18zm-77.36 7.14c-1.18 0.25-2.53 1.12-3 1.94-0.63 1.08-0.03 2.15 2.13 3.83 2.11 1.63 3.22 1.98 3.74 1.17 0.4-0.63 0.74-2.61 0.75-4.4 0.01-1.79-0.32-3.19-0.74-3.11-0.41 0.07-1.71 0.33-2.88 0.57zm31.63 10.79c0 3.94 0.36 5.39 1.25 5.11 0.69-0.21 3.39-0.66 6-1 4.71-0.61 4.75-0.64 4.77-4.36 0.02-3.54-0.19-3.79-3.75-4.49-2.07-0.41-4.78-0.74-6.02-0.75-2.06-0.01-2.25 0.45-2.25 5.49zm59.87 25.02c-0.75 0.84-1.14 1.66-0.87 1.81 0.28 0.16 2.75 1.93 5.5 3.94 2.75 2.01 5.45 3.68 6 3.71 0.64 0.04 0.71-1.48 0.19-4.21-0.45-2.35-1.35-4.85-2-5.57-0.65-0.71-2.6-1.27-4.32-1.25-1.73 0.03-3.75 0.73-4.5 1.57zm23.45 16.23c-0.43 1.21 0.27 2.44 2.28 3.99 1.6 1.24 3.24 2.25 3.65 2.25 0.42 0.01 0.77-0.78 0.78-1.74 0.01-0.96-1-2.75-2.25-3.98-1.25-1.23-2.62-2.24-3.05-2.25-0.43-0.01-1.06 0.77-1.41 1.73zm27.65 3.53c0.03 1.22 0.39 3.97 0.8 6.11 0.4 2.15 1.41 4.13 2.23 4.42 0.83 0.29 2.63 1.37 4 2.39 1.38 1.03 2.95 1.86 3.5 1.86 0.62-0.01 0.71-1.19 0.25-3.04-0.65-2.65-0.47-3.05 1.49-3.27 2.17-0.24 2.14-0.33-0.75-3.02-1.64-1.52-4.22-3.32-5.74-4-1.51-0.68-2.77-1.52-2.79-1.87-0.03-0.36-0.72-0.91-1.55-1.22-1.06-0.41-1.48 0.07-1.44 1.64zm10.15 24.22c-0.83 1.11-0.74 2.84 0.33 6.75 0.8 2.89 2.04 8.07 2.75 11.51 1.16 5.56 1.53 6.19 3.3 5.63 1.1-0.35 2.11-0.7 2.24-0.77 0.12-0.06-0.65-3.5-1.73-7.62-1.08-4.13-1.97-8.51-1.98-9.75-0.01-1.24-0.59-3.39-1.28-4.78-0.68-1.39-1.53-2.52-1.88-2.5-0.35 0.02-1.14 0.7-1.75 1.53zm-62.92 17.62c-0.06 1.31-0.84 3.05-1.73 3.88-0.89 0.83-1.47 2.61-1.29 4 0.27 2.06 0.85 2.49 3.32 2.42 1.65-0.04 4.8-0.98 7-2.09 2.2-1.12 4.07-2.72 4.14-3.57 0.08-0.85-1.05-2.47-2.5-3.6-1.45-1.12-4.03-2.35-5.73-2.73-2.77-0.61-3.11-0.43-3.21 1.69zm31.04 26.64c-0.69 1.5-1.25 3.75-1.25 4.99 0.01 1.24 0.24 2.92 0.51 3.75 0.28 0.82 1.29 1.51 2.25 1.52 0.97 0.01 2.54-0.56 3.51-1.25 1.67-1.21 1.66-1.52-0.16-6.27-1.05-2.75-2.3-5.11-2.76-5.24-0.47-0.14-1.41 0.99-2.1 2.5zm-131.29 6.46c-1.89 2.32-3.37 4.91-3.28 5.75 0.09 0.84-0.47 2.77-1.25 4.28-0.97 1.89-2.2 2.75-3.92 2.75-1.37 0-2.5-0.45-2.5-1 0-0.55 0.79-1.23 1.75-1.51 0.97-0.28 1.53-0.76 1.25-1.06-0.27-0.3-1.85-0.29-3.5 0.03-2.52 0.48-3.28 1.37-4.75 5.56-1.66 4.74-1.66 5.1 0 7.46 1.44 2.05 2.29 2.37 4.75 1.85 2.81-0.6 2.96-0.49 2.3 1.76-0.49 1.66-0.18 2.96 1 4.19 0.94 0.98 2.27 1.77 2.95 1.75 0.69-0.02 2.36 1.21 3.72 2.72 1.35 1.51 2.63 2.52 2.83 2.25 0.21-0.28 2.53-4.55 5.17-9.5l4.8-9c-1.66-20.18-2-21.48-3.77-21.95-1.1-0.29-2.47-0.53-3.05-0.54-0.58-0.01-2.6 1.89-4.5 4.21zm-33.72 14.15c-2.98 0.79-4.26 1.65-4.25 2.88 0.02 1.5 0.69 1.66 4.77 1.15 2.62-0.33 5.09-0.78 5.5-1 0.42-0.22 0.75-1.3 0.75-2.4 0-1.1-0.56-1.95-1.25-1.88-0.68 0.06-3.17 0.63-5.52 1.25zm-162.91 6.88c-1.11 1.24-4.44 5.66-7.42 9.83l-5.4 7.59c11.15 1.96 12.26 1.88 13.78 0.47 1.22-1.13 1.45-1.95 0.73-2.64-0.57-0.55-1.04-2.8-1.05-5 0-2.98 0.65-4.64 2.54-6.5 1.41-1.38 2.65-3.02 2.76-3.64 0.12-0.63-0.57-1.42-1.52-1.75-0.95-0.34-1.88-0.61-2.07-0.61-0.18 0-1.24 1.01-2.35 2.25zm13.68 0.75c0 1.65 0.45 3 1 3 0.55 0 1.68-1.01 2.51-2.25 0.83-1.24 1.51-2.59 1.5-3 0-0.41-1.13-0.75-2.51-0.75-2.11 0-2.5 0.47-2.5 3zm14.49 13.75c-0.41 7.01-0.47 13.31-0.12 14 0.35 0.69 1.76 1.25 3.13 1.25q2.5 0 3 2c0.28 1.1 1.18 2 2 2 0.83 0 1.72-1.01 1.99-2.25 0.27-1.24 0.49-3.83 0.49-5.75 0.01-1.93 0.35-5.65 0.77-8.27 0.75-4.7 0.8-4.76 4.5-4.75 2.68 0.01 3.75-0.41 3.75-1.48 0-0.83-0.67-1.73-1.5-2-0.82-0.28-2.85-0.5-4.5-0.5-1.93 0-3.23-0.62-3.66-1.75-0.36-0.96-1.48-2.54-2.5-3.5-1.01-0.96-2.91-1.75-4.21-1.75-2.34 0-2.39 0.2-3.14 12.75zm281.76-7.77c-1.14 1.85-1.89 1.96-9 1.31l-7.75-0.71c5.53 8.46 8.59 13.62 10.37 16.92 2.43 4.5 3.72 5.94 5.19 5.75 1.58-0.2 2.24 0.82 3.52 5.5 0.87 3.16 1.32 6.31 1 7-0.33 0.73-2.45 1.25-5.08 1.25-4.18 0-4.45 0.16-3.87 2.25 0.34 1.24 1.37 2.92 2.28 3.75 0.99 0.9 2.14 4.61 2.87 9.25l1.22 7.75 9.5 0.04c-1.18-5.85-1.79-9.34-2.11-11.54l-0.59-4c17.6-3.67 23.75-5.02 25.04-5.37 1.74-0.47 2.19-1.13 1.76-2.63-0.31-1.1-0.57-2.79-0.58-3.75-0.01-1.27-0.63-1.64-2.27-1.33-1.23 0.23-3.15 0.71-4.25 1.07-1.5 0.49-2.37-0.01-3.5-2.01-1.25-2.22-1.99-2.57-4.5-2.09-1.76 0.34-3.53 0.07-4.29-0.66-0.71-0.68-1.27-2.47-1.25-3.98 0.02-1.51-2.18-7.14-4.9-12.5-2.71-5.36-5.53-10.55-6.25-11.52-1.24-1.67-1.37-1.66-2.56 0.25zm116.17 35.27c0.39 2.34 0.79 4.32 0.9 4.41 0.1 0.09 1.42-0.02 2.93-0.25 2.4-0.36 2.75-0.86 2.75-3.91 0-2.82-0.43-3.6-2.25-3.99-1.23-0.26-2.88-0.49-3.65-0.5-1.09-0.01-1.24 0.92-0.68 4.24zm-248.55 10.32c-1.06 1.22-2.56 1.45-6.62 1-4.73-0.51-5.36-0.35-6.4 1.68-0.63 1.24-1.47 2.47-1.87 2.75-0.41 0.27-1.01 2.96-1.34 5.97-0.55 4.91-0.45 5.33 0.92 4 0.84-0.81 1.51-2.03 1.49-2.72-0.03-0.85 1.32-1.17 4.2-1 3.98 0.23 4.24 0.42 4 3-0.2 2.25 0.13 2.7 1.81 2.5 1.62-0.2 2.65-2.04 4.9-8.75 1.56-4.68 2.66-8.84 2.44-9.25-0.22-0.41-0.8-0.75-1.28-0.75-0.49 0-1.5 0.71-2.25 1.57zm254.13 15.43c0 1.1 0.68 2.67 1.5 3.5 0.83 0.82 2.18 1.5 3 1.5 0.96 0 1.69 1.28 2 3.5 0.28 1.92 0.95 3.5 1.5 3.5 0.55 0 1-0.68 1-1.5 0-0.89 0.62-1.3 1.5-1 0.83 0.27 2.2-0.06 3.05-0.75 0.85-0.69 1.52-2.49 1.5-4-0.03-1.51 0.49-2.86 1.14-3 0.69-0.15 0.9-0.97 0.5-2-0.57-1.47-1.99-1.75-8.69-1.75-7.33 0-8 0.17-8 2zm-285 14c0 7.33 0.17 8 2 8 1.84 0 2-0.67 2-8 0-7.33-0.16-8-2-8-1.83 0-2 0.67-2 8zm-125.41 23.5c-0.32 0.82-0.59 3.75-0.59 6.5 0 2.75-0.56 6.2-1.25 7.67-1.05 2.25-1.01 2.75 0.25 3.18 0.83 0.29 2.4 1.54 3.5 2.79 1.1 1.26 2.45 2.28 3 2.28 0.55-0.01 1.68 0.7 2.5 1.58 0.83 0.87 1.84 1.57 2.25 1.54 0.42-0.02 0.77-3.75 0.8-8.29 0.03-6.29-0.33-8.61-1.55-9.75-0.87-0.83-1.56-2.06-1.54-2.75 0.02-0.69-0.86-1.25-1.96-1.25-1.46 0-2-0.67-2-2.5 0-1.49-0.57-2.5-1.41-2.5-0.78 0-1.68 0.67-2 1.5zm312.58 62.67c0.19 1.19 0.9 2.32 1.58 2.5 0.76 0.2 1.25-0.66 1.25-2.17 0-1.61-0.56-2.5-1.58-2.5q-1.58 0-1.25 2.17zm-113.67 24.5c-0.45 0.36-0.75 2.39-0.66 4.5 0.16 3.78 0.22 3.83 4.41 4.03 2.34 0.11 5.94 0.11 8 0 2.07-0.11 4.77 0.48 6 1.32 1.39 0.94 3.97 1.42 6.71 1.25 4.35-0.26 4.49-0.38 5.25-4.27 0.43-2.2 0.67-4.13 0.54-4.28-0.14-0.15-5.42-0.92-11.75-1.71-6.32-0.78-12.88-1.44-14.58-1.47-1.69-0.02-3.46 0.26-3.92 0.63zm218 4.44c-5.5 1.07-14.16 2.83-19.25 3.91-6 1.29-9.42 2.51-9.75 3.48-0.27 0.82-0.5 1.95-0.5 2.5 0 0.55 1.92 0.98 4.25 0.97 2.79-0.03 4.87 0.58 6.03 1.75 1.34 1.34 1.58 2.5 1 4.69-0.77 2.89-0.75 2.9 2.72 2.17 1.93-0.4 4.29-0.92 5.25-1.16 1.39-0.33 1.63-1.1 1.16-3.67-0.34-1.92-0.04-4.28 0.75-5.75 0.74-1.38 1.79-2.81 2.34-3.19 0.55-0.37 3.48-0.96 6.5-1.3 3.03-0.34 6.97-0.82 8.75-1.06 2.69-0.37 3.25-0.89 3.25-2.95 0-1.38-0.56-2.46-1.25-2.42-0.68 0.05-5.75 0.96-11.25 2.03zm-161.27 27.91c-0.4 1.66-0.95 3.02-1.23 3.02-0.27 0-1.04-0.58-1.7-1.27-0.97-1.02-1.74-0.92-3.96 0.5-1.51 0.98-2.66 2.21-2.54 2.75 0.11 0.54 1.07 2.89 2.13 5.23 1.05 2.34 2.51 5.82 3.23 7.75l1.31 3.5c0.95-5.47 1.58-6.05 4.04-6.27 2.46-0.23 3.7 0.53 6.99 4.27 2.56 2.9 4.82 4.54 6.25 4.52 1.24-0.01 2.25-0.25 2.25-0.52 0-0.28-2.63-5.34-5.84-11.25-3.22-5.91-6.15-11.76-6.5-13-0.36-1.24-1.34-2.25-2.18-2.25-0.86 0-1.83 1.3-2.25 3.02zm-60.61 21.73c-0.35 2.61-0.63 5.54-0.62 6.5 0 0.99 0.77 1.76 1.75 1.77q1.75 0.02 2.52-3.25c0.42-1.8 0.86-4.46 0.98-5.91 0.15-1.75-0.36-2.85-1.51-3.25-0.95-0.34-1.91-0.61-2.12-0.61-0.2 0-0.66 2.14-1 4.75z"/>
		<path id="Path 10" class="s10" d="m791.5 185.3c3.85 3.57 7.23 6.26 7.5 5.99 0.27-0.28-1.98-2.74-5-5.48-3.02-2.73-6.4-5.42-7.5-5.98-1.1-0.55 1.15 1.91 5 5.47zm53.9 64.7c0.33 0.55 2.4 1.9 4.6 3 2.2 1.1 4.56 1.85 5.25 1.66 0.69-0.19-1.11-1.54-4-3-2.89-1.46-5.52-2.66-5.85-2.66-0.33 0-0.33 0.45 0 1zm-50.4 48.5c0 0.27 2.48 2.3 5.5 4.5 3.02 2.2 5.73 4 6 4 0.27 0 0.49-0.34 0.48-0.75-0.01-0.41-2.27-2.1-5.01-3.75-2.75-1.65-4.99-3.34-4.99-3.75 0.01-0.41-0.43-0.75-0.98-0.75-0.55 0-1 0.23-1 0.5zm-134.75 83.56c-1.24 0.52-2.1 1.5-1.92 2.19 0.19 0.69 0.64 1.14 1 1 0.37-0.14 1.79-0.48 3.17-0.75 1.38-0.27 2.5-1.18 2.5-2 0-0.83-0.56-1.47-1.25-1.44-0.69 0.04-2.26 0.49-3.5 1zm170.97 30.71c-0.7 0.4-1.06 1.4-0.79 2.23 0.26 0.82 1.63 2.29 3.03 3.25 1.39 0.96 2.55 1.64 2.56 1.5 0.02-0.14-0.55-1.94-1.26-4-0.71-2.06-1.51-3.74-1.78-3.73-0.26 0-1.05 0.34-1.76 0.75zm-186.22 82.73c0 2.83 0.38 3.5 2 3.5 1.1 0 2-0.45 2-1 0-0.55-0.45-2.13-1-3.5-0.55-1.38-1.45-2.5-2-2.5-0.55 0-1 1.57-1 3.5zm-191.5 31.24c0.55 0.54 4.38 3.22 8.5 5.95 4.13 2.72 8.06 5.26 8.75 5.63 0.69 0.38 1.27 0.34 1.29-0.07 0.02-0.41-3.9-3.23-8.71-6.25-4.81-3.02-9.21-5.67-9.79-5.88q-1.04-0.37-0.04 0.62zm57.67 75.43q-0.14 4.31 0.72 2.83c0.73-1.27 1.34-1.12 3.99 1 2.14 1.71 3.48 2.18 4.23 1.5 0.61-0.55 0.83-1.56 0.5-2.25-0.34-0.69-1.51-1.25-2.61-1.25-1.1 0-3.05-1.38-4.34-3.08l-2.34-3.07zm218.16 96.82c0 4.13 0.18 5.93 0.39 4 0.22-1.92 0.22-5.3 0-7.5-0.21-2.2-0.39-0.62-0.39 3.5z"/>
		<path id="Path 11" class="s11" d="m681.51 434.69c-1.1 0.25-1.88 0.87-1.75 1.38 0.13 0.51 0.91 0.93 1.74 0.93 0.83 0 1.69 0.56 1.92 1.25 0.32 0.93 0.7 0.87 1.49-0.25 0.58-0.82 1.07-2.06 1.07-2.75 0.01-0.69-0.54-1.2-1.23-1.13-0.69 0.06-2.15 0.32-3.24 0.57zm140.5 27.81c-0.02 1.1 0.53 2.57 1.22 3.27 0.7 0.69 1.83 1.26 2.52 1.25 0.69-0.01 1.25-0.92 1.25-2.02q0-2-1.5-1.5c-0.83 0.27-1.94-0.29-2.47-1.25-0.89-1.6-0.97-1.58-1.02 0.25zm-305.06 120.25c-1.9 0.92-3.78 2.13-4.18 2.71-0.41 0.57-0.69 2.39-0.64 4.04 0.06 1.65 0.27 2.21 0.49 1.25 0.21-0.96 0.86-1.75 1.46-1.75 0.59 0 2.39-1.35 4-3 1.6-1.65 2.78-3.43 2.62-3.96-0.17-0.52-1.85-0.21-3.75 0.71zm395.05 66.82c-5.23 1.35-9.69 2.67-9.92 2.94-0.23 0.27 0.45 0.49 1.5 0.49 1.06 0 6.42-1.13 11.92-2.51 5.5-1.38 10.19-2.74 10.42-3 0.23-0.27-0.67-0.46-2-0.43-1.33 0.04-6.69 1.17-11.92 2.51z"/>
		<path id="Path 12" class="s12" d="m754.93 184.06c0.05 1.38 1.01 2.11 3.32 2.51 1.79 0.32 4.04 0.77 5 1 1.23 0.3 1.75-0.17 1.75-1.57 0-1.1-0.56-2.19-1.25-2.41-0.69-0.23-2.97-0.65-5.07-0.94-3.32-0.45-3.82-0.26-3.75 1.41zm-63.41 8.71c-1.03 1.04-1.8 2.41-1.7 3.06 0.1 0.64 2.09 1.88 4.43 2.74 2.34 0.87 5.34 1.43 6.67 1.25 1.33-0.17 2.59-0.77 2.78-1.32 0.2-0.55-1.67-1.56-4.17-2.25-2.91-0.8-4.82-1.99-5.33-3.31-0.78-2.01-0.83-2.02-2.68-0.17zm168.48 77.73c0 0.82 0.9 1.73 2 2 1.1 0.27 2.45 0.27 3 0 0.55-0.27 1-1.18 1-2q0-1.5-3-1.5-3 0-3 1.5zm-87.5 8.96c-2.2 1.34-6.14 3.03-8.76 3.74-2.62 0.72-4.76 1.64-4.75 2.05 0 0.41 1.7 0.76 3.76 0.78 2.21 0.02 6.01-1.13 9.25-2.8 3.12-1.61 5.57-3.57 5.66-4.53 0.09-0.94-0.13-1.7-0.5-1.69-0.36 0-2.46 1.1-4.66 2.45zm-6.41 18.23c-0.02 0.44 1.42 1.6 3.21 2.58 3.22 1.75 3.24 1.75 3.22-0.5-0.02-1.81-0.66-2.33-3.2-2.58-1.75-0.18-3.2 0.05-3.23 0.5zm-228.24 101.59c-0.69 0.61-1.16 1.71-1.05 2.42 0.11 0.71 0.88 1.3 1.7 1.3 0.83 0 1.5-0.45 1.5-1 0-0.55 1-1.11 2.22-1.25 2.11-0.24 2.09-0.31-0.45-1.42-1.98-0.87-3-0.88-3.92-0.05zm163.21 2.72c-1.13 1.65-1.95 3.19-1.81 3.42 0.14 0.23 1.49 0.68 3 1 2.64 0.56 2.75 0.42 2.75-3.42 0-2.2-0.42-4-0.94-4-0.52 0-1.87 1.35-3 3zm-173.06 8c0 0.55 1.01 0.99 2.25 0.98 1.24-0.01 2.81 0.56 3.48 1.25 0.68 0.7 1.47 1.04 1.76 0.77 0.29-0.27 0.3-1.29 0.02-2.25-0.36-1.24-1.54-1.75-4.01-1.75-1.92 0-3.5 0.45-3.5 1zm275.15 12c-0.11 1.37-0.9 3.17-1.76 4-1.02 0.99-1.35 2.44-0.97 4.25 0.49 2.31 1.1 2.76 3.83 2.78 3.08 0.03 3.16-0.06 1.57-1.75-0.96-1.01-1.85-3.93-2.07-6.78-0.22-2.75-0.48-3.88-0.6-2.5zm-277.92 41.38c-0.13 2.54 0.11 4.47 0.52 4.29 0.41-0.18 2.23-0.96 4.03-1.75 1.95-0.84 3.17-2.03 2.99-2.92-0.16-0.83-1.41-1.66-2.78-1.85-1.37-0.19-2.95-0.8-3.51-1.37-0.69-0.7-1.09 0.46-1.25 3.6zm119.89 20.54c-0.07 4.8 0.29 8.08 0.88 8.08 0.55 0 1.45-0.9 2-2 0.55-1.1 0.71-3.01 0.35-4.25-0.35-1.24-0.69-3.79-0.75-5.67-0.05-1.88-0.61-3.6-1.23-3.83-0.78-0.29-1.17 2.11-1.25 7.67zm-0.12 18.08c0 2.33 0.44 3 2 3 1.56 0 2-0.67 2-3 0-2.33-0.44-3-2-3-1.56 0-2 0.67-2 3zm-118.02 38.25c-0.01 1.24 0.56 2.82 1.25 3.52 0.7 0.69 1.61 1.26 2.02 1.25 0.41-0.01 0.75-1.6 0.75-3.52 0-2.83-0.38-3.5-2-3.5-1.4 0-2 0.67-2.02 2.25zm303.11 62.87c-1.77 1.59-1.99 2.61-1.46 6.63 0.47 3.62 0.83 4.33 1.5 3 0.48-0.96 1.66-1.76 2.62-1.77 0.96-0.01 2.37 0.56 3.13 1.25 1.16 1.07 1.28 0.71 0.74-2.23-0.35-1.92-0.63-4.18-0.62-5.01 0.02-0.83-0.84-2.01-1.9-2.63-1.54-0.89-2.34-0.74-4.01 0.76zm-305.6 16.38c-0.44 1.19-0.18 2.9 0.64 4.24 0.75 1.23 2.27 2.46 3.37 2.73 1.1 0.28 4.14 0.51 6.75 0.52q4.74 0.01 4.74-1.24c-0.01-0.69-0.24-2.26-0.5-3.5-0.45-2.05-1.06-2.25-6.99-2.25q-6.5 0-6.88-1.25c-0.23-0.74-0.69-0.44-1.13 0.75zm379.76 15.14c-1.47 0.23-2.16 0.96-1.99 2.11 0.14 0.97 1.26 1.86 2.5 2 1.23 0.14 2.24-0.2 2.24-0.75 0-0.55 0.17-1.67 0.38-2.5 0.21-0.83 0.09-1.44-0.25-1.36-0.35 0.07-1.64 0.3-2.88 0.5zm-65.25 9.36c0 4.33 0.27 5 2 5 1.23 0 2-0.67 2.01-1.75 0.01-0.96-0.13-3.21-0.31-5-0.22-2.26-0.83-3.25-2.01-3.25-1.36 0-1.69 0.97-1.69 5zm-171.89 59.5c-0.06 1.65 0.72 4.58 1.74 6.5 1.02 1.92 3.61 4.51 5.75 5.73 2.15 1.23 4.69 2.24 5.65 2.25 1.41 0.02 1.21-0.51-1.04-2.73-1.53-1.51-3.55-3.09-4.5-3.5-0.94-0.41-1.66-1.09-1.59-1.5 0.06-0.41 0.06-1.31 0-2-0.07-0.69-1.13-1.36-2.36-1.5-1.6-0.18-2.43-1.12-2.89-3.25l-0.63-3z"/>
		<path id="Path 13" class="s13" d="m740 183.5c0 1.14 1.26 1.5 5.25 1.51 2.89 0.01 6.17 0.29 7.3 0.62 1.57 0.46 2.09 0.12 2.25-1.51 0.19-1.99-0.26-2.12-7.3-2.12-6 0-7.5 0.3-7.5 1.5zm-47.28 45.25c-0.29 2.61-0.23 6.28 0.13 8.14 0.36 1.87 1.21 3.56 1.9 3.75 0.83 0.24 1.25 2.46 1.25 6.61-0.01 5.17 0.34 6.47 2 7.5 1.1 0.69 2.23 1.14 2.51 1 0.28-0.14 0.07-2.28-0.47-4.75-0.55-2.47-1-7.65-1.02-11.5-0.02-4.29-0.71-8.66-1.78-11.28-0.96-2.36-2.25-4.27-2.87-4.25-0.63 0.01-1.37 2.17-1.65 4.78zm103.45 142.99c-1.28 0.97-1.96 2.04-1.5 2.38 0.46 0.34 1.95 0.89 3.33 1.22 1.83 0.44 2.84 0.07 3.75-1.37 1.07-1.69 0.96-2.11-0.75-2.97-1.1-0.55-2.11-1-2.25-1.01-0.14 0-1.3 0.79-2.58 1.75zm-271.67 25.39c-1.9 1.02-1.85 1.14 1 2.5 1.65 0.79 4.8 1.44 7 1.45 2.42 0 4.59-0.63 5.5-1.61 1.33-1.45 1.33-1.73 0-2.53-0.83-0.5-3.75-0.9-6.5-0.89-2.75 0-5.9 0.49-7 1.08zm300.08 0.37c-0.32 0.82-0.02 2.13 0.67 2.91 0.69 0.77 1.86 1.11 2.6 0.75 1.04-0.51 1.1-1.17 0.25-2.91-0.61-1.24-1.51-2.25-2.02-2.25-0.5 0-1.17 0.68-1.5 1.5zm-151.35 23.88c-4.47 0.95-5.26 1.46-5.25 3.37 0.02 2.13 0.31 2.22 5.27 1.61 2.89-0.35 5.33-0.69 5.42-0.75 0.09-0.06 0.39-1.35 0.66-2.86 0.27-1.51 0.2-2.69-0.17-2.62-0.36 0.07-3.03 0.64-5.93 1.25zm-109.23 9.62c0 0.55-2.55 1.11-5.67 1.25-3.52 0.15-5.8 0.73-6 1.5-0.2 0.75 0.66 1.25 2.17 1.25 1.5 0 2.9 0.8 3.5 2 0.55 1.1 0.78 2.45 0.5 3-0.27 0.55-3.2 1-6.5 1-4.67 0-6 0.33-6 1.5 0 1.22 1.67 1.5 9 1.5 8.33 0 9-0.15 9-2 0-1.1 0.9-4.25 2-7l2-5c-3.1 0-4 0.45-4 1zm316 10.75c0 0.41 2.12 2.1 4.7 3.75 2.59 1.65 5.97 5.02 7.51 7.5l2.82 4.5c-0.03-7.76-0.68-9.2-3.78-12.55-3.13-3.37-4.37-4.03-7.5-4-2.06 0.03-3.75 0.39-3.75 0.8zm35.95 16.72c-0.8 0.81-3.92 1.95-6.95 2.53-3.02 0.58-6.17 1.71-7 2.5-0.83 0.8-1.27 1.65-1 1.89 0.28 0.24 5-0.45 10.5-1.54 8.14-1.62 10.14-1.74 10.73-0.67 0.41 0.73 0.75 2.33 0.75 3.57 0.02 1.79 0.69 2.33 3.27 2.63 1.79 0.21 3.36 0.21 3.5 0 0.14-0.21-0.42-1.73-1.25-3.38-0.83-1.65-1.5-3.9-1.5-5 0-1.1-0.56-2.19-1.25-2.42-0.69-0.23-2.85-0.69-4.8-1.01-2.45-0.4-4-0.12-5 0.9zm-237.18 17.31c-0.96 2.04-1.74 4.28-1.75 4.97-0.01 0.69 0.77 1.27 1.73 1.28 1.14 0.03 2.36-1.46 3.49-4.25 0.96-2.35 1.75-4.62 1.75-5.03 0.01-0.41-0.78-0.74-1.74-0.72-1.03 0.01-2.46 1.55-3.48 3.75zm-9.09 25.97c-0.23 0.41-1.37 3.79-2.55 7.5-1.89 6-1.96 6.92-0.63 8.25 1.14 1.14 1.62 1.2 1.99 0.25 0.27-0.69 1.63-4.63 3.01-8.75 1.39-4.13 2.52-7.61 2.51-7.75 0-0.14-0.89-0.25-1.96-0.25-1.07 0-2.14 0.34-2.37 0.75zm-10.64 34c-1.14 3.37-1.09 3.88 0.59 5.02 1.03 0.69 2.1 1.27 2.37 1.27 0.28 0 0.84-1.47 1.26-3.27 0.42-1.8 0.76-4.06 0.75-5.02 0-1.03-0.77-1.75-1.85-1.75q-1.84-0.01-3.12 3.75zm158.14-1.4c-2.65 0.92-3.21 1.56-2.75 3.15 0.31 1.1 0.91 3.7 1.32 5.77 0.74 3.73 0.8 3.77 5.5 3.75 4.38-0.02 4.72-0.19 4.32-2.27-0.23-1.24-0.59-4.39-0.79-7-0.31-3.97-0.69-4.73-2.33-4.65-1.07 0.06-3.45 0.62-5.27 1.25zm-165.7 70.45c-1.58 1.55-2.79 3.57-2.68 4.5 0.11 0.97-0.66 1.91-1.8 2.2-1.72 0.43-2 1.33-2 6.5v6c-19.77-0.49-20-0.45-20 1.75 0 2.22 0.16 2.25 11.75 2l11.75-0.25c0.49-14.27 0.6-14.54 3.5-15.75 2.67-1.11 3-1.72 3-5.5 0-2.34-0.14-4.25-0.32-4.25-0.17 0-1.61 1.26-3.2 2.8zm18.52 21.1c-3.58 0.94-7.06 2.03-7.75 2.41-0.69 0.38-1.25 1.59-1.25 2.69 0 1.76 0.42 1.91 3.44 1.25 3.19-0.7 3.48-0.55 4 2 0.5 2.45 1 2.75 4.56 2.75 2.2 0 4 0.45 4 1 0 0.55 0.67 1 1.5 1 0.97 0 1.5-0.98 1.51-2.75 0-1.51-0.19-4.89-0.43-7.5-0.29-3.12-0.89-4.72-1.76-4.66-0.72 0.05-4.24 0.86-7.82 1.81zm8.91 66.35c-0.05 0.69-0.03 3.27 0.05 5.75 0.08 2.48 0.35 5.29 0.59 6.25 0.25 0.96 1.46 1.86 2.7 2q2.25 0.25 2.5 2.5c0.19 1.67 0.9 2.25 2.75 2.25 1.38 0 2.73-0.45 3-1 0.28-0.55 2.3-1 4.5-1 3.9 0 4-0.08 4-3.5v-3.5c-12.77 0-15.03-0.37-15.12-1.25-0.06-0.69-0.22-1.7-0.34-2.25-0.13-0.55-0.3-2.46-0.39-4.25-0.12-2.53-0.59-3.25-2.15-3.25-1.1 0-2.04 0.56-2.09 1.25z"/>
		<path id="Path 14" class="s14" d="m702.1 284.94c-0.05 0.58 0.24 1.06 0.65 1.06 0.41-0.01 2.55 1.55 4.75 3.46 3.57 3.09 3.87 3.68 2.75 5.5q-1.27 2.06-0.14 1.79c0.61-0.14 1.76-1.15 2.54-2.25 1.33-1.86 1.09-2.26-3.36-5.55-2.63-1.96-5.31-3.89-5.94-4.31-0.63-0.42-1.19-0.28-1.25 0.3zm197.71 151.56c0.53 1.1 1.57 2.51 2.32 3.14 0.75 0.62 2.27 3 3.37 5.28 1.1 2.28 2.67 4.12 3.5 4.1 0.83-0.03 2.17-0.49 3-1.02 1.21-0.78 1.07-0.97-0.75-0.98-1.3-0.01-2.99-1.12-4-2.63-0.96-1.43-3.24-4.24-5.07-6.25-1.82-2-2.89-2.74-2.37-1.64zm58.19 109c-0.01 0.55 1 5.39 2.24 10.75 1.25 5.36 2.6 9.74 3.01 9.75 0.41 0 0.58-1.46 0.37-3.25-0.21-1.79-0.96-5.5-1.68-8.25-0.72-2.75-1.9-6.13-2.62-7.5-0.72-1.38-1.31-2.05-1.32-1.5zm15.08 83.78c-0.65 2.25-2.48 4.81-4.6 6.47-1.94 1.51-3.41 2.87-3.25 3.01 0.15 0.15 1.39-0.12 2.77-0.59 1.37-0.47 3.51-2.5 4.75-4.51 1.24-2.01 2.06-4.66 1.83-5.88-0.34-1.83-0.6-1.57-1.5 1.5z"/>
		<path id="Path 15" class="s15" d="m738 185.7c-1.38 0.24-5.42 1.29-9 2.32-3.58 1.04-9.2 3.64-12.5 5.78-3.3 2.13-8.14 6.2-10.75 9.04-2.61 2.84-5.61 7.07-6.67 9.41-1.06 2.34-2.23 6.05-2.6 8.25-0.46 2.65-0.17 5.35 0.83 8 0.84 2.2 1.69 8.28 1.9 13.5 0.34 8.34 0.81 10.35 3.8 16.5 2.09 4.28 5.56 9.15 8.95 12.54 3.46 3.47 8.36 6.95 13.04 9.27 5.53 2.74 9.73 4.01 16 4.83 7.07 0.92 9.85 0.83 16.5-0.51 4.4-0.89 10.92-3.08 14.5-4.87 4.18-2.09 9.23-5.93 14.12-10.75l7.62-7.51c1.97 6.2 4.62 10.18 7.15 12.84 2.7 2.82 7.52 6.29 11.61 8.34 5.51 2.75 8.59 3.6 14.5 4.01 6.05 0.42 8.76 0.1 14-1.67 3.58-1.21 8.98-3.69 12-5.52 3.02-1.83 6.4-4.25 7.5-5.39l2-2.07c-4.65-0.86-8.25-1.76-11-2.54-2.75-0.79-7.7-3.06-11-5.04-3.3-1.98-7.28-4.8-8.84-6.28-1.56-1.47-3.89-4.48-5.17-6.68-1.28-2.2-3.49-4.56-4.91-5.25-1.42-0.69-5.5-1.25-9.08-1.25-5.83 0-6.94 0.34-10.75 3.3l-4.25 3.3c0.66-20.01 0.33-23.61-1.41-30.1-1.37-5.14-3.64-10.3-6.36-14.43-2.33-3.54-6.03-7.95-8.23-9.81-2.2-1.87-6.7-4.7-10-6.29-3.3-1.6-9.49-3.6-13.75-4.44-4.26-0.84-9.89-1.47-12.5-1.39-2.61 0.07-5.87 0.33-7.25 0.56zm1.25 109.87c-2.89 0.78-7.39 2.43-10 3.66-2.61 1.22-6.55 4.05-8.75 6.28-2.2 2.23-5.63 6.52-7.62 9.52-2 3.01-5.4 8.17-7.56 11.47-2.16 3.3-11.55 17.23-20.87 30.95-15.16 22.32-17.37 25.12-20.88 26.5-2.16 0.85-20.39 7.18-40.5 14.05l-36.57 12.5c0.46 5.92 0.14 6.5-1.5 6.5-1.1 0-3.69 0.86-5.75 1.91-2.06 1.05-5.2 3.42-6.96 5.25-1.77 1.84-4.36 6.15-5.75 9.59-1.4 3.44-2.54 7.15-2.54 8.25 0 1.9-0.67 2-13 2h-13c-0.74 8.14-1.42 17.02-1.99 25-0.56 7.98-1.5 20.13-2.07 27-0.57 6.88-1.2 15.2-1.39 18.5-0.19 3.3-1.07 17.25-1.96 31-0.89 13.75-2.28 34.67-3.1 46.5-0.82 11.83-1.49 22.85-1.49 24.5l-0.01 3c54.65 2.04 79.28 3.05 90.01 3.55 10.73 0.51 21.64 0.93 24.25 0.94l4.75 0.01v-177c-3.49-0.75-9.11-0.98-14.75-0.99l-10.25-0.01c-1.55-8.14-1.89-10.53-1.75-10.57 0.14-0.04 11.27-2.91 24.75-6.38 13.48-3.47 29.34-7.26 35.25-8.43 9.83-1.94 10.91-2.38 12.63-5.12 1.03-1.65 2.74-3.9 3.79-5 1.05-1.1 3.36-4.14 5.12-6.75 1.77-2.61 3.55-4.75 3.96-4.75 0.41-0.01 1.11 6.63 1.54 14.75l0.79 14.75c-13.11 25.57-18.82 37.5-21.14 43-2.33 5.5-4.5 10.23-4.84 10.5-0.33 0.27-0.61 0.95-0.62 1.5-0.01 0.55-2.57 8.88-5.68 18.5-3.11 9.63-7.28 23.8-9.27 31.5-1.98 7.7-4.77 21.88-6.2 31.5-2.01 13.52-2.62 21.71-2.71 36-0.07 10.17 0.22 20.64 0.63 23.25 0.71 4.48 0.91 4.73 3.5 4.34 1.51-0.23 6.35-1.37 10.75-2.53 4.4-1.16 8.11-1.99 8.25-1.84 0.14 0.15 0.68 6.8 1.21 14.78 0.53 7.98 1.43 22.83 2.01 33 0.58 10.17 1.25 20.98 1.49 24 0.24 3.02 0.46 5.61 0.49 5.75 0.03 0.14 6.57 0.25 14.55 0.25h14.5c0.79-12.01 1.45-20.67 1.97-27 0.52-6.33 1.48-20.27 2.14-31 0.66-10.73 1.59-19.95 2.07-20.5 0.58-0.66 8.44-0.15 23.23 1.5l22.35 2.5c2.66 4.65 7.75 14.33 13.04 24.5 5.28 10.17 12.55 24.15 16.15 31.05 3.6 6.9 7 13.35 7.55 14.33 0.92 1.64 2.02 1.28 13-4.25 6.6-3.32 12.6-6.4 13.33-6.84 1.06-0.62 0.6-2.56-2.17-9.29-1.92-4.67-5.61-13.9-8.2-20.5-2.59-6.6-5.29-13.35-6-15-0.71-1.65-2.47-5.7-3.91-9-1.44-3.3-2.38-6.56-2.08-7.25 0.29-0.69 1.32-1.26 2.28-1.26 0.96-0.01 5.58-0.91 10.25-2 4.67-1.09 9.32-2.55 10.32-3.24 1.74-1.2 1.69-1.93-1.26-17.75-1.69-9.08-3.55-18.75-4.12-21.5-0.58-2.75-1.64-8.15-2.36-12-0.72-3.85-3.14-16-5.38-27-2.23-11-4.3-21.58-4.58-23.5-0.29-1.92-0.97-5.3-1.52-7.5-0.55-2.2-2.12-10.07-3.49-17.5-1.37-7.43-2.74-14.29-3.05-15.25-0.47-1.47 0.08-1.75 3.44-1.75 2.89 0 4-0.42 4-1.5 0-0.82-2.53-6.56-5.62-12.75-3.09-6.19-7.27-13.73-9.29-16.75-2.01-3.02-4.64-6.85-5.83-8.5-2.11-2.91-2.19-4.1-2.72-38.25-0.3-19.39-0.31-35.25-0.04-35.25 0.27 0 2 1.01 3.84 2.25 1.83 1.24 10.12 6.75 18.42 12.25 14.18 9.4 15.17 10.27 16.6 14.5 0.83 2.48 4.94 13.5 9.12 24.5 4.19 11 8.32 22.02 9.18 24.5 0.86 2.48 2.19 5.74 2.95 7.25 1.27 2.52 1.17 3.07-1.16 6.5-1.4 2.06-3.02 5.55-3.6 7.75-0.73 2.81-0.72 5.63 0.04 9.5 0.59 3.02 0.97 5.58 0.84 5.68-0.13 0.09-4.73 1.13-10.23 2.31-5.5 1.17-11.51 2.44-13.36 2.82-3.2 0.66-3.34 0.87-2.82 4.19 0.3 1.93 1.74 11.15 3.19 20.5 1.46 9.35 3.02 19.48 3.48 22.5 0.46 3.02 1.78 11.01 2.92 17.75 1.15 6.74 1.86 12.7 1.59 13.25-0.27 0.55-0.12 1.56 0.34 2.25 0.47 0.69 1.58 4.85 2.47 9.25 0.89 4.4 2.31 12.84 3.15 18.75 0.85 5.91 1.31 11.2 1.04 11.75-0.27 0.55-0.05 1 0.5 1 0.55 0 1.27 2.59 1.59 5.75 0.33 3.16 1.65 11.15 2.94 17.75 1.29 6.6 2.71 14.17 3.16 16.82 0.7 4.17 1.08 4.75 2.81 4.27 1.1-0.3 6.95-1.65 13-3.01 6.05-1.36 17.75-3.87 26-5.59 8.25-1.72 21.08-4.43 28.5-6.02 7.42-1.6 20.31-4.16 28.64-5.69 8.33-1.53 15.43-3.01 15.78-3.28 0.35-0.27-0.74-6.58-2.43-14-1.69-7.42-4.43-19.35-6.09-26.5-1.66-7.15-3.69-16.15-4.51-20-0.82-3.85-2.57-11.73-3.88-17.5-1.32-5.77-3.34-15-4.5-20.5-1.15-5.5-2.98-13.82-4.06-18.5-1.08-4.68-3.77-16.6-5.97-26.5-2.21-9.9-4.12-18.13-4.25-18.3-0.13-0.16-4.96 0.63-10.73 1.76-5.77 1.13-11.29 2.06-12.25 2.05-1.11-0.01-1.95-1.02-2.29-2.76-0.29-1.51-1.75-5.2-3.25-8.19-1.64-3.3-4.29-6.6-6.71-8.37-2.2-1.61-5.46-3.55-7.25-4.31-2.29-0.97-3.52-2.34-4.16-4.63-0.5-1.79-1.69-6.85-2.64-11.25-0.96-4.4-3.22-14.07-5.03-21.5-1.81-7.43-4.56-19.22-6.1-26.22-2.65-11.95-2.97-12.73-5.32-13-1.83-0.2-2.58-0.95-2.78-2.78-0.16-1.37 0.18-2.95 0.74-3.5 0.69-0.68 0.29-1.69-1.22-3.12-1.23-1.17-8.99-6.64-17.24-12.17-8.25-5.52-19.73-13.28-25.5-17.23-5.77-3.96-15.9-10.92-22.5-15.47-6.6-4.55-14.92-9.76-18.5-11.56-3.58-1.81-8.75-3.89-11.5-4.61-2.75-0.72-6.8-1.29-9-1.26-2.2 0.03-6.36 0.7-9.25 1.49zm-209.96 117.18c-0.36 0.96-1.58 3.1-2.71 4.75-1.14 1.65-7.04 9.75-13.13 18-6.09 8.25-15.23 21.07-20.32 28.5-5.08 7.43-13.05 18.9-17.69 25.5-4.65 6.6-9.91 14.02-11.69 16.5-1.78 2.48-3.24 4.88-3.24 5.35-0.01 0.46 3.81 3.46 8.49 6.66 4.68 3.2 15.02 10.22 23 15.61 7.98 5.38 16.9 11.6 19.83 13.83 4.38 3.33 5.48 3.78 6.16 2.55 0.46-0.83 1.12-6 1.46-11.5 0.35-5.5 1.7-23.05 3.01-39 1.31-15.95 2.98-37.42 3.71-47.7 1.23-17.27 1.48-18.75 3.33-19.24 1.1-0.29 5.94-0.54 10.75-0.55l8.75-0.01-0.02-10.5c-13.16-8.14-17.44-10.5-18-10.5-0.57 0-1.33 0.79-1.69 1.75z"/>
		<path id="Path 16" class="s16" d="m757 766.73c2.48 0.21 6.08 0.21 8 0 1.92-0.22-0.1-0.39-4.5-0.39-4.4 0.01-5.98 0.18-3.5 0.39z"/>
		<path id="Path 17" class="s1" d="m482.11 666.5c-0.61 0.83-0.88 2.17-0.61 3 0.27 0.83 0.95 1.5 1.5 1.5 0.55 0 0.84-0.56 0.64-1.25-0.21-0.69-0.05-2.04 0.33-3 0.39-0.96 0.37-1.75-0.02-1.75-0.4 0-1.23 0.67-1.84 1.5z"/>
		<path id="Path 18" class="s2" d="m655.7 376.45c-1.48 1.95-2.45 3.89-2.14 4.3 0.31 0.41 1.77 0.06 3.25-0.79 1.48-0.85 2.83-2.42 3-3.5 0.18-1.08-0.07-2.32-0.54-2.76-0.48-0.43-2.08 0.8-3.57 2.75zm-207.13 134.3c-0.32 0.96-0.47 1.83-0.33 1.92 0.14 0.09 1.5 0.43 3.01 0.75q2.76 0.59 2.71-0.67c-0.02-0.69-0.81-1.8-1.75-2.47-0.94-0.67-2.01-1.23-2.38-1.25-0.36-0.02-0.93 0.76-1.26 1.72z"/>
		<path id="Path 19" class="s5" d="m828.69 297.25c-0.96 1.79-1.48 3.48-1.16 3.75 0.31 0.27 1.34 0 2.27-0.6 0.94-0.61 1.8-2.29 1.92-3.75 0.13-1.46-0.11-2.65-0.53-2.65-0.41 0-1.54 1.46-2.5 3.25zm-188.69 80.73c-0.9 0.57-1.5 2.46-1.5 4.73 0 3.65-0.13 3.79-4 4.32-2.2 0.3-4.56 0.86-5.25 1.26-0.69 0.39-1.25 1.16-1.25 1.71 0 0.56 1.65 0.83 3.75 0.6 2.06-0.21 5-1 6.52-1.75 1.92-0.93 3.24-2.75 4.27-5.85 0.81-2.48 1.48-4.84 1.47-5.25 0-0.41-0.57-0.74-1.26-0.73-0.69 0-1.93 0.44-2.75 0.96zm57.57 52.59c-1.61 0.82-2.85 1.93-2.75 2.46 0.1 0.53 0.4 0.97 0.68 0.97 0.27 0 2.08-0.79 4.02-1.75 1.94-0.96 3.51-2.09 3.5-2.5-0.01-0.41-0.58-0.73-1.27-0.71-0.69 0.02-2.57 0.71-4.18 1.53z"/>
		<path id="Path 20" class="s6" d="m857.5 460.89c-3.79 0.58-4.01 0.81-4.25 4.36-0.14 2.06 0.11 3.75 0.55 3.75 0.44 0 1.23-0.5 1.75-1.11 0.52-0.6 1.51-0.83 2.2-0.5 0.69 0.34 1.24 1.17 1.24 1.86-0.01 0.76 2.05 1.51 5.25 1.91 2.89 0.36 7.51 0.23 10.26-0.29 2.75-0.53 5.58-1.5 6.29-2.16 0.72-0.67 1.28-2 1.25-2.96-0.02-0.96-0.94-2.2-2.04-2.75-1.1-0.55-3.13-1-4.5-1-1.38 0-3.74 0.75-5.25 1.67-1.54 0.93-3.52 1.37-4.5 1-0.96-0.37-1.9-1.57-2.09-2.67-0.19-1.1-0.76-1.94-1.25-1.86-0.5 0.08-2.71 0.42-4.91 0.75z"/>
		<path id="Path 21" class="s9" d="m587.03 427.01c-2.25 0.75-2.3 1-1.43 6.83 0.49 3.32 1.48 6.64 2.18 7.35 0.98 1 1.68 1.04 3 0.17 1.08-0.72 1.63-2.21 1.49-4-0.13-1.57-0.83-4.72-1.56-7-1.2-3.7-1.58-4.05-3.68-3.35zm14.47 11.66c-0.46 0.36-0.76 1.94-0.67 3.5 0.15 2.54 0.53 2.83 3.67 2.83 2.83 0 3.5-0.38 3.5-2 0-1.1-0.22-2.68-0.5-3.5-0.27-0.82-1.55-1.5-2.83-1.5-1.29 0-2.71 0.3-3.17 0.67z"/>
		<path id="Path 22" class="s11" d="m687.5 770.04c-6.05 0.99-12.13 2.1-13.5 2.47-1.38 0.38-3.96 1.09-5.75 1.59-1.82 0.5-3.25 1.56-3.25 2.4 0 0.83 0.79 1.77 1.75 2.1 0.96 0.32 6.02 1.63 11.25 2.9 5.23 1.28 12.54 2.58 16.25 2.91l6.75 0.59c0.02-9.69 0.25-13.51 0.51-14.75 0.37-1.69 0.05-2.22-1.26-2.13-0.96 0.07-6.7 0.93-12.75 1.92zm91.56 6.41l-0.06 8.55c8.91 0 13.08-0.44 15-0.99 1.92-0.54 6.42-1.07 10-1.16 3.58-0.1 6.95-0.5 7.5-0.89 0.55-0.38 3.36-1.21 6.25-1.83q5.25-1.13 6.25-3.13c0.55-1.1 0.66-2.17 0.25-2.38-0.41-0.21-3.9-1.07-7.75-1.92-3.85-0.84-11.05-2-16-2.57-4.95-0.56-11.79-1.3-15.19-1.63l-6.2-0.6z"/>
		<path id="Path 23" class="s12" d="m594.84 439.71c-1.46 0.22-3.15 1.06-3.75 1.85-0.6 0.79-0.87 1.89-0.59 2.44 0.27 0.55 2.75 1 5.5 1 4.89 0 5-0.07 5-3 0-2.25-0.44-2.96-1.75-2.85-0.96 0.08-2.95 0.33-4.41 0.56zm262.21 19.57l-2.45 1.16c3.8 0.53 5.46 0.43 6.15 0.12 0.69-0.31 1.25-1.01 1.25-1.56 0-0.55-0.56-0.97-1.25-0.94-0.69 0.04-2.35 0.59-3.7 1.22z"/>
		<path id="Path 24" class="s13" d="m580.64 430.96c-1.45 1.67-3.09 4.73-3.63 6.79-0.55 2.06-1 4.31-1 5-0.01 0.69 1 1.25 2.24 1.24 1.24 0 4.39 0.34 7.02 0.75 3.91 0.62 4.75 0.49 4.71-0.74-0.03-0.82-0.83-2.03-1.77-2.67-1.15-0.79-1.87-3.04-2.21-6.92-0.27-3.17-1-5.92-1.61-6.12-0.61-0.21-2.29 0.99-3.75 2.67zm286.11 24.61c-4.43 1.33-4.71 1.61-4.17 4.18 0.32 1.51 1.11 3.33 1.75 4.04 0.64 0.72 1.84 1.29 2.67 1.27 0.83-0.01 2.4-0.69 3.5-1.51 1.1-0.82 3.24-1.5 4.75-1.52 1.51-0.02 3.65 0.42 4.75 0.97 1.1 0.55 2.01 1.79 2.02 2.75 0.01 0.96-0.56 2.38-1.25 3.15-1.05 1.15-0.97 1.28 0.48 0.75 0.96-0.36 2.42-0.65 3.25-0.65 0.83 0 1.5-0.67 1.5-1.5 0-0.82-0.73-2.96-1.61-4.75-0.89-1.79-2.8-4.5-4.25-6.02-1.81-1.9-3.58-2.74-5.64-2.68-1.65 0.05-5.14 0.73-7.75 1.52zm-12.23 12.82c-1.27 0.86-1.9 2.27-1.75 3.97 0.16 1.81 0.81 2.64 2.06 2.64 1.01 0 2.17-0.34 2.58-0.75 0.42-0.41 1.5-0.79 2.42-0.83 0.92-0.04 2.91-0.15 4.42-0.25 1.51-0.09 2.75-0.62 2.75-1.17 0-0.55-1.8-1-4-1-3.17 0-4.1-0.42-4.5-2-0.27-1.1-0.84-1.99-1.25-1.97-0.41 0.02-1.64 0.63-2.73 1.36z"/>
		<path id="Path 25" class="s14" d="m717.5 767.13c-8.25 0.51-15.23 1.18-15.5 1.48-0.27 0.31-0.66 4.01-0.86 8.22l-0.35 7.67c14.77 2.45 23.31 2.64 45.21 2.19 15.67-0.32 29.51-0.84 30.75-1.14 2.11-0.52 2.25-1.07 2.25-9.05 0-4.67-0.34-8.67-0.75-8.88-0.41-0.21-10.88-0.61-23.25-0.9-12.38-0.28-29.25-0.1-37.5 0.41z"/>
	</g>
</svg>